# This file uses centimeters as units for non-parametric coordinates.

mtllib radar.mtl
g default
v 0.000000 -0.013563 0.147779
v 1.250657 -0.013563 0.147779
v 0.000000 0.725500 0.147779
v 1.250657 0.725500 0.147779
v 1.381961 -0.013563 0.000000
v 1.381961 -0.013563 0.147779
v 1.381961 0.725500 0.000000
v 1.381961 0.725500 0.147779
v 0.000000 0.777839 0.113573
v 1.250657 0.777839 0.113573
v 1.352176 0.777839 0.113573
v 1.352176 0.777839 0.000000
v 0.000000 1.003289 0.113573
v 1.250657 1.003289 0.113573
v 1.250657 1.003289 0.000000
v 1.352176 1.003289 0.113573
v 1.352176 1.003289 0.000000
v 0.000000 1.039245 0.044739
v 1.250657 1.039245 0.044739
v 1.250657 1.039245 0.000000
v -1.250657 -0.013563 0.147779
v -1.250657 0.725500 0.147779
v -1.381961 -0.013563 0.000000
v -1.381961 -0.013563 0.147779
v -1.381961 0.725500 0.000000
v -1.381961 0.725500 0.147779
v -1.250657 0.777839 0.113573
v -1.352176 0.777839 0.113573
v -1.352176 0.777839 0.000000
v -1.250657 1.003289 0.113573
v -1.250657 1.003289 0.000000
v -1.352176 0.902959 0.113573
v -1.352176 0.902959 0.000000
v -1.250657 1.039245 0.044739
v -1.250657 1.039245 0.000000
v -0.000000 -0.013563 -0.147779
v 1.250657 -0.013563 -0.147779
v -0.000000 0.725500 -0.147779
v 1.250657 0.725500 -0.147779
v 1.381961 -0.013563 -0.147779
v 1.381961 0.725500 -0.147779
v 0.000000 0.777839 -0.113573
v 1.250657 0.777839 -0.113573
v 1.352176 0.777839 -0.113573
v 0.000000 1.003289 -0.113573
v 1.250657 1.003289 -0.113573
v 1.352176 1.003289 -0.113573
v 0.000000 1.039245 -0.044739
v 1.250657 1.039245 -0.044739
v -1.250657 -0.013563 -0.147779
v -1.250657 0.725500 -0.147779
v -1.381961 -0.013563 -0.147779
v -1.381961 0.725500 -0.147779
v -1.250657 0.777839 -0.113573
v -1.352176 0.777839 -0.113573
v -1.250657 1.003289 -0.113573
v -1.352176 0.902959 -0.113573
v -1.250657 1.039245 -0.044739
v 1.250657 2.308567 0.113573
v 1.250657 2.308567 0.000000
v 1.352176 2.308567 0.113573
v 1.352176 2.308567 0.000000
v 1.352176 2.308567 -0.113573
v 1.250657 2.308567 -0.113573
v 1.250657 2.385256 0.113573
v 1.250657 2.385256 0.000000
v 1.302287 2.385256 0.113573
v 1.302287 2.385256 0.000000
v 1.302287 2.385256 -0.113573
v 1.250657 2.385256 -0.113573
v 0.111214 2.308567 0.113573
v 0.111214 2.308567 0.000000
v 0.111214 2.385256 0.113573
v 0.111214 2.385256 0.000000
v 0.111214 2.308567 -0.113573
v 0.111214 2.385256 -0.113573
v 0.000000 1.039245 0.044475
v 1.243293 1.039245 0.044475
v 1.243293 1.039245 0.000000
v -1.243293 1.039245 0.000000
v -1.243293 1.039245 0.044475
v 0.000000 1.039245 -0.044475
v 1.243293 1.039245 -0.044475
v -1.243293 1.039245 -0.044475
v 0.000000 1.030443 0.034855
v 1.243293 1.030443 0.034855
v 1.243293 1.030443 0.000000
v 0.000000 1.030443 0.000000
v -1.243293 1.030443 0.000000
v -1.243293 1.030443 0.034855
v 0.000000 1.030443 -0.034855
v 1.243293 1.030443 -0.034855
v -1.243293 1.030443 -0.034855
v -0.000000 2.308567 0.113573
v -0.000000 2.308567 0.000000
v 0.044187 2.363150 0.113573
v 0.044187 2.363150 0.000000
v -0.000000 2.308567 -0.113573
v 0.044187 2.363150 -0.113573
vt 0.876050 0.537043
vt 0.904448 0.537043
vt 0.904448 0.679064
vt 0.876050 0.679064
vt 0.932846 0.537043
vt 0.932846 0.679064
vt 0.904448 0.689121
vt 0.882623 0.689121
vt 0.926272 0.689121
vt 0.904448 0.732444
vt 0.882623 0.732444
vt 0.926272 0.732444
vt 0.904448 0.983271
vt 0.882623 0.983271
vt 0.926272 0.983271
vt 0.904448 0.998008
vt 0.882623 0.998008
vt 0.926272 0.998008
vt 0.651197 0.580693
vt 0.651197 0.558868
vt 0.658106 0.558868
vt 0.658106 0.567465
vt 0.651197 0.537043
vt 0.658106 0.550271
vt 0.720942 0.537043
vt 0.720942 0.679064
vt 0.692544 0.679064
vt 0.692544 0.537043
vt 0.714369 0.689121
vt 0.692544 0.689121
vt 0.664146 0.537043
vt 0.664146 0.679064
vt 0.714369 0.713165
vt 0.692544 0.713165
vt 0.670719 0.689121
vt 0.692544 0.732444
vt 0.714369 0.732444
vt 0.670719 0.713165
vt 0.670719 0.732444
vt 0.701141 0.739354
vt 0.692544 0.739354
vt 0.683947 0.739354
vt 0.848185 0.537043
vt 0.870010 0.537043
vt 0.870010 0.787870
vt 0.848185 0.787870
vt 0.826361 0.537043
vt 0.826361 0.787870
vt 0.645157 0.537043
vt 0.645157 0.545590
vt 0.643466 0.545590
vt 0.643466 0.538892
vt 0.645157 0.554136
vt 0.643466 0.552288
vt 0.637426 0.545590
vt 0.637426 0.554136
vt 0.635735 0.552288
vt 0.635735 0.545590
vt 0.637426 0.537043
vt 0.635735 0.538892
vt 0.954012 0.242321
vt 0.954012 0.003407
vt 0.960710 0.003407
vt 0.960710 0.242321
vt 0.952164 0.242321
vt 0.952164 0.003407
vt 0.967408 0.242321
vt 0.967408 0.003407
vt 0.960710 0.481236
vt 0.954012 0.481236
vt 0.952113 0.242321
vt 0.952113 0.001992
vt 0.952164 0.481236
vt 0.967408 0.481236
vt 0.969257 0.003407
vt 0.969257 0.242321
vt 0.938886 0.242321
vt 0.938886 0.001992
vt 0.960710 0.001992
vt 0.960710 0.003407
vt 0.952113 0.482651
vt 0.969257 0.481236
vt 0.969307 0.001992
vt 0.969307 0.242321
vt 0.938886 0.482651
vt 0.960710 0.482651
vt 0.960710 0.481236
vt 0.969307 0.482651
vt 0.982535 0.242321
vt 0.982535 0.001992
vt 0.982535 0.482651
vt 0.798496 0.546965
vt 0.776671 0.546965
vt 0.776671 0.537043
vt 0.798496 0.537043
vt 0.798496 0.765923
vt 0.776671 0.765923
vt 0.820320 0.537043
vt 0.820320 0.546965
vt 0.820320 0.765923
vt 0.798496 0.778803
vt 0.776671 0.778803
vt 0.820320 0.778803
vt 0.798496 0.787294
vt 0.776671 0.787294
vt 0.820320 0.787294
vt 0.748806 0.537043
vt 0.770631 0.537043
vt 0.770631 0.756001
vt 0.748806 0.756001
vt 0.770631 0.777373
vt 0.748806 0.777373
vt 0.726982 0.537043
vt 0.726982 0.756001
vt 0.726982 0.777373
vt 0.001961 0.267553
vt 0.001961 0.027224
vt 0.143982 0.027224
vt 0.143982 0.267553
vt 0.001961 0.001992
vt 0.143982 0.001992
vt 0.154039 0.027224
vt 0.154039 0.267553
vt 0.143982 0.507882
vt 0.001961 0.507882
vt 0.154039 0.007714
vt 0.197362 0.027224
vt 0.197362 0.267553
vt 0.154039 0.507882
vt 0.143982 0.533114
vt 0.001961 0.533114
vt 0.197362 0.007714
vt 0.197362 0.507882
vt 0.154039 0.527391
vt 0.448189 0.007714
vt 0.448189 0.027224
vt 0.178083 0.527391
vt 0.462926 0.017302
vt 0.462926 0.027224
vt 0.462926 0.246182
vt 0.448189 0.246182
vt 0.458678 0.259062
vt 0.448189 0.267553
vt 0.931289 0.267553
vt 0.789268 0.267553
vt 0.789268 0.027224
vt 0.931289 0.027224
vt 0.931289 0.507882
vt 0.789268 0.507882
vt 0.779211 0.267553
vt 0.779211 0.027224
vt 0.789268 0.001992
vt 0.931289 0.001992
vt 0.931289 0.533114
vt 0.789268 0.533114
vt 0.779211 0.507882
vt 0.735888 0.267553
vt 0.735888 0.027224
vt 0.779211 0.007714
vt 0.779211 0.527391
vt 0.735888 0.507882
vt 0.735888 0.007714
vt 0.755168 0.527391
vt 0.485061 0.027224
vt 0.485061 0.007714
vt 0.470325 0.027224
vt 0.470325 0.017302
vt 0.485061 0.246182
vt 0.470325 0.246182
vt 0.485061 0.267553
vt 0.474573 0.259062
vn 0.000000 0.000000 1.000000
vn 0.000000 0.000000 1.000000
vn 0.000000 0.000000 1.000000
vn 0.000000 0.000000 1.000000
vn 0.000000 1.000000 0.000000
vn 0.000000 1.000000 0.000000
vn 0.000000 1.000000 0.000000
vn 0.000000 1.000000 0.000000
vn 1.000000 0.000000 0.000000
vn 1.000000 0.000000 0.000000
vn 1.000000 0.000000 0.000000
vn 1.000000 0.000000 0.000000
vn 0.000000 1.000000 0.000000
vn 0.000000 1.000000 0.000000
vn 0.000000 1.000000 0.000000
vn 0.000000 1.000000 0.000000
vn 0.000000 0.000000 1.000000
vn 0.000000 0.000000 1.000000
vn 0.000000 0.000000 1.000000
vn 0.000000 0.000000 1.000000
vn 0.000000 0.547071 0.837086
vn 0.000000 0.547071 0.837086
vn 0.000000 0.547071 0.837086
vn 0.000000 0.547071 0.837086
vn 0.000000 0.547072 0.837086
vn 0.000000 0.547072 0.837086
vn 0.000000 0.547072 0.837086
vn 0.000000 0.547072 0.837086
vn 0.869124 0.494595 0.000000
vn 0.869124 0.494595 0.000000
vn 0.869124 0.494595 0.000000
vn 0.869124 0.494595 0.000000
vn 0.000000 0.000000 1.000000
vn 0.000000 0.000000 1.000000
vn 0.000000 0.000000 1.000000
vn 0.000000 0.000000 1.000000
vn 0.000000 0.000000 1.000000
vn 0.000000 0.000000 1.000000
vn 0.000000 0.000000 1.000000
vn 0.000000 0.000000 1.000000
vn 1.000000 0.000000 0.000000
vn 1.000000 0.000000 0.000000
vn 1.000000 0.000000 0.000000
vn 1.000000 0.000000 0.000000
vn 0.000000 0.886358 0.463001
vn 0.000000 0.886358 0.463001
vn 0.000000 0.886358 0.463001
vn 0.000000 0.886358 0.463001
vn 1.000000 0.000003 0.000000
vn 1.000000 0.000001 0.000000
vn 1.000000 0.000001 0.000000
vn 1.000000 0.000003 0.000000
vn 0.000000 0.000000 1.000000
vn 0.000000 0.000000 1.000000
vn 0.000000 1.000000 0.000000
vn 0.000000 1.000000 0.000000
vn -1.000000 0.000000 0.000000
vn -1.000000 0.000000 0.000000
vn -1.000000 0.000000 0.000000
vn -1.000000 0.000000 0.000000
vn -0.702929 0.711260 0.000000
vn -0.702929 0.711260 0.000000
vn -0.702929 0.711260 0.000000
vn -0.702929 0.711260 0.000000
vn 0.000000 0.000000 1.000000
vn 0.000000 0.000000 1.000000
vn 0.000000 0.000000 1.000000
vn 0.000000 0.000000 1.000000
vn 0.000000 0.547071 0.837086
vn 0.000000 0.547071 0.837086
vn -0.000000 0.547072 0.837086
vn -0.000000 0.547072 0.837086
vn -0.000000 0.547072 0.837086
vn -0.000000 0.547072 0.837086
vn -0.869124 0.494595 0.000000
vn -0.869124 0.494595 0.000000
vn -0.869124 0.494595 0.000000
vn -0.869124 0.494595 0.000000
vn 0.000000 0.000000 1.000000
vn 0.000000 0.000000 1.000000
vn -0.000000 0.000000 1.000000
vn -0.000000 0.000000 1.000000
vn -0.000000 0.000000 1.000000
vn -0.000000 0.000000 1.000000
vn -1.000000 0.000000 0.000000
vn -1.000000 0.000000 0.000000
vn -1.000000 0.000000 0.000000
vn -1.000000 0.000000 0.000000
vn 0.000000 0.886358 0.463001
vn 0.000000 0.886358 0.463001
vn -1.000000 0.000000 0.000000
vn -1.000000 0.000000 0.000000
vn -1.000000 0.000001 0.000000
vn -1.000000 0.000001 0.000000
vn 0.000000 0.000000 -1.000000
vn 0.000000 0.000000 -1.000000
vn 0.000000 0.000000 -1.000000
vn 0.000000 0.000000 -1.000000
vn 0.000000 1.000000 0.000000
vn 0.000000 1.000000 0.000000
vn 1.000000 0.000000 0.000000
vn 1.000000 0.000000 0.000000
vn 0.000000 1.000000 0.000000
vn 0.000000 1.000000 0.000000
vn 0.000000 0.000000 -1.000000
vn 0.000000 0.000000 -1.000000
vn 0.000000 0.000000 -1.000000
vn 0.000000 0.000000 -1.000000
vn 0.000000 0.547071 -0.837086
vn 0.000000 0.547071 -0.837086
vn 0.000000 0.547071 -0.837086
vn 0.000000 0.547071 -0.837086
vn 0.000000 0.547072 -0.837086
vn 0.000000 0.547072 -0.837086
vn 0.000000 0.547072 -0.837086
vn 0.000000 0.547072 -0.837086
vn 0.869124 0.494595 0.000000
vn 0.869124 0.494595 0.000000
vn 0.000000 0.000000 -1.000000
vn 0.000000 0.000000 -1.000000
vn 0.000000 0.000000 -1.000000
vn 0.000000 0.000000 -1.000000
vn 0.000000 0.000000 -1.000000
vn 0.000000 0.000000 -1.000000
vn 0.000000 0.000000 -1.000000
vn 0.000000 0.000000 -1.000000
vn 1.000000 0.000000 0.000000
vn 1.000000 0.000000 0.000000
vn 0.000000 0.886358 -0.463001
vn 0.000000 0.886358 -0.463001
vn 0.000000 0.886358 -0.463001
vn 0.000000 0.886358 -0.463001
vn 1.000000 0.000000 0.000000
vn 1.000000 0.000000 0.000000
vn 0.000000 0.000000 -1.000000
vn 0.000000 0.000000 -1.000000
vn 0.000000 1.000000 0.000000
vn -1.000000 0.000000 0.000000
vn -1.000000 0.000000 0.000000
vn -0.702929 0.711260 0.000000
vn -0.702929 0.711260 0.000000
vn 0.000000 0.000000 -1.000000
vn 0.000000 0.000000 -1.000000
vn 0.000000 0.000000 -1.000000
vn 0.000000 0.000000 -1.000000
vn 0.000000 0.547071 -0.837086
vn 0.000000 0.547071 -0.837086
vn -0.000000 0.547072 -0.837086
vn -0.000000 0.547072 -0.837086
vn -0.000000 0.547072 -0.837086
vn -0.000000 0.547072 -0.837086
vn -0.869124 0.494595 0.000000
vn -0.869124 0.494595 0.000000
vn 0.000000 0.000000 -1.000000
vn 0.000000 0.000000 -1.000000
vn -0.000000 0.000000 -1.000000
vn -0.000000 0.000000 -1.000000
vn -0.000000 0.000000 -1.000000
vn -0.000000 0.000000 -1.000000
vn -1.000000 0.000000 0.000000
vn -1.000000 0.000000 0.000000
vn 0.000000 0.886358 -0.463001
vn 0.000000 0.886358 -0.463001
vn -1.000000 0.000003 0.000000
vn -1.000000 0.000003 0.000000
vn -1.000000 0.000000 0.000000
vn -1.000000 0.000000 0.000000
vn -1.000000 0.000000 0.000000
vn -1.000000 0.000000 0.000000
vn 0.000000 0.000000 1.000000
vn 0.000000 0.000000 1.000000
vn 0.000000 0.000000 1.000000
vn 0.000000 0.000000 1.000000
vn 1.000000 0.000000 0.000000
vn 1.000000 0.000000 0.000000
vn 1.000000 0.000000 0.000000
vn 1.000000 0.000000 0.000000
vn 1.000000 0.000000 0.000000
vn 1.000000 0.000000 0.000000
vn 1.000000 0.000000 0.000000
vn 1.000000 0.000000 0.000000
vn 0.000000 0.000000 -1.000000
vn 0.000000 0.000000 -1.000000
vn 0.000000 0.000000 -1.000000
vn 0.000000 0.000000 -1.000000
vn -1.000000 0.000000 0.000000
vn -1.000000 0.000000 0.000000
vn -1.000000 0.000000 0.000000
vn -1.000000 0.000000 0.000000
vn -0.777241 0.629203 0.000000
vn -0.777241 0.629203 0.000000
vn -0.777241 0.629203 0.000000
vn -0.777241 0.629203 0.000000
vn 0.000000 0.000000 1.000000
vn 0.000000 0.000000 1.000000
vn 0.000000 0.000000 1.000000
vn 0.000000 0.000000 1.000000
vn 0.838242 0.545299 0.000000
vn 0.838242 0.545299 0.000000
vn 0.838242 0.545299 0.000000
vn 0.838242 0.545299 0.000000
vn 0.838242 0.545299 0.000000
vn 0.838242 0.545299 0.000000
vn 0.838242 0.545299 0.000000
vn 0.838242 0.545299 0.000000
vn 0.000000 0.000000 -1.000000
vn 0.000000 0.000000 -1.000000
vn 0.000000 0.000000 -1.000000
vn 0.000000 0.000000 -1.000000
vn -0.777241 0.629203 0.000000
vn -0.777241 0.629203 0.000000
vn -0.777241 0.629203 0.000000
vn -0.777241 0.629203 0.000000
vn 0.000000 -1.000000 0.000000
vn 0.000000 -1.000000 0.000000
vn 0.000000 -1.000000 0.000000
vn 0.000000 -1.000000 0.000000
vn 0.000000 0.000000 1.000000
vn 0.000000 0.000000 1.000000
vn 0.000000 0.000000 1.000000
vn 0.000000 0.000000 1.000000
vn 0.000000 1.000000 0.000000
vn 0.000000 1.000000 0.000000
vn 0.000000 1.000000 0.000000
vn 0.000000 1.000000 0.000000
vn 0.000000 -1.000000 0.000000
vn 0.000000 -1.000000 0.000000
vn 0.000000 -1.000000 0.000000
vn 0.000000 -1.000000 0.000000
vn 0.000000 1.000000 0.000000
vn 0.000000 1.000000 0.000000
vn 0.000000 1.000000 0.000000
vn 0.000000 1.000000 0.000000
vn 0.000000 0.000000 -1.000000
vn 0.000000 0.000000 -1.000000
vn 0.000000 0.000000 -1.000000
vn 0.000000 0.000000 -1.000000
vn 0.000000 1.000000 0.000000
vn 0.000000 1.000000 0.000000
vn 0.000000 1.000000 0.000000
vn 0.000000 1.000000 0.000000
vn 0.000000 1.000000 0.000000
vn 0.000000 1.000000 0.000000
vn 0.000000 1.000000 0.000000
vn 0.000000 1.000000 0.000000
vn 0.000000 1.000000 0.000000
vn 0.000000 1.000000 0.000000
vn 0.000000 1.000000 0.000000
vn 0.000000 1.000000 0.000000
vn 0.000000 1.000000 0.000003
vn 0.000000 1.000000 0.000003
vn 0.000000 1.000000 0.000003
vn 0.000000 1.000000 0.000003
vn 0.000000 1.000000 0.000000
vn 0.000000 1.000000 0.000000
vn 0.000000 1.000000 0.000000
vn 0.000000 1.000000 0.000000
vn 0.000000 1.000000 -0.000003
vn 0.000000 1.000000 -0.000003
vn 0.000000 1.000000 -0.000003
vn 0.000000 1.000000 -0.000003
vn 0.000000 1.000000 0.000000
vn 0.000000 1.000000 0.000000
vn 0.000000 1.000000 0.000000
vn 0.000000 1.000000 0.000000
vn 0.000000 1.000000 0.000000
vn 0.000000 1.000000 0.000000
vn 0.000000 1.000000 0.000000
vn 0.000000 1.000000 0.000000
vn 0.000000 0.737783 -0.675038
vn 0.000000 0.737783 -0.675038
vn 0.000000 0.737783 -0.675038
vn 0.000000 0.737783 -0.675038
vn -1.000000 0.000000 0.000000
vn -1.000000 0.000000 0.000000
vn -1.000000 0.000000 0.000000
vn -1.000000 0.000000 0.000000
vn 1.000000 0.000000 0.000000
vn 1.000000 0.000000 0.000000
vn 1.000000 0.000000 0.000000
vn 1.000000 0.000000 0.000000
vn 0.000000 0.737783 -0.675038
vn 0.000000 0.737783 -0.675038
vn 0.000000 0.737783 -0.675038
vn 0.000000 0.737783 -0.675038
vn -1.000000 0.000000 0.000000
vn -1.000000 0.000000 0.000000
vn -1.000000 0.000000 0.000000
vn -1.000000 0.000000 0.000000
vn 0.000000 0.737783 0.675038
vn 0.000000 0.737783 0.675038
vn 0.000000 0.737783 0.675038
vn 0.000000 0.737783 0.675038
vn 0.000000 0.737783 0.675038
vn 0.000000 0.737783 0.675038
vn 0.000000 0.737783 0.675038
vn 0.000000 0.737783 0.675038
vn 1.000000 0.000000 0.000000
vn 1.000000 0.000000 0.000000
vn 1.000000 0.000000 0.000000
vn 1.000000 0.000000 0.000000
vn 0.000000 -1.000000 0.000000
vn 0.000000 -1.000000 0.000000
vn 0.000000 -1.000000 0.000000
vn 0.000000 -1.000000 0.000000
vn 0.000000 0.000000 1.000000
vn 0.000000 0.000000 1.000000
vn 0.000000 0.000000 1.000000
vn 0.000000 0.000000 1.000000
vn -0.313208 0.949685 0.000000
vn -0.313208 0.949685 0.000000
vn -0.313208 0.949685 0.000000
vn -0.313208 0.949685 0.000000
vn 0.000000 -1.000000 0.000000
vn 0.000000 -1.000000 0.000000
vn 0.000000 -1.000000 0.000000
vn 0.000000 -1.000000 0.000000
vn -0.313208 0.949685 0.000000
vn -0.313208 0.949685 0.000000
vn -0.313208 0.949685 0.000000
vn -0.313208 0.949685 0.000000
vn 0.000000 0.000000 -1.000000
vn 0.000000 0.000000 -1.000000
vn 0.000000 0.000000 -1.000000
vn 0.000000 0.000000 -1.000000
s 1
g radar_low
usemtl initialShadingGroup
f 1/116/1 2/117/2 4/118/3 3/119/4
s 2
f 85/61/5 86/62/6 87/63/7 88/64/8
s 3
f 6/1/9 5/2/10 7/3/11 8/4/12
s 4
f 66/92/13 65/93/14 67/94/15 68/95/16
s off
f 4/118/17 2/117/18 6/120/19 8/121/20
s 5
f 3/119/21 4/118/22 10/122/23 9/123/24
s off
f 4/118/25 8/121/26 11/126/27 10/122/28
s 6
f 8/4/29 7/3/30 12/7/31 11/8/32
s 7
f 9/123/33 10/122/34 14/127/35 13/128/36
s off
f 10/122/37 11/126/38 16/132/39 14/127/40
s 8
f 11/8/41 12/7/42 17/10/43 16/11/44
s 9
f 13/77/45 14/78/46 19/72/47 18/71/48
s 10
f 14/19/49 15/20/50 20/21/51 19/22/52
s 1
f 1/116/1 3/119/4 22/124/53 21/125/54
s 2
f 85/61/5 88/64/8 89/69/55 90/70/56
s 11
f 24/25/57 26/26/58 25/27/59 23/28/60
s 12
f 31/36/61 33/34/62 32/33/63 30/37/64
s off
f 22/124/65 26/130/66 24/131/67 21/125/68
s 5
f 3/119/21 9/123/24 27/129/69 22/124/70
s off
f 22/124/71 27/129/72 28/134/73 26/130/74
s 13
f 26/26/75 28/29/76 29/30/77 25/27/78
s 7
f 9/123/33 13/128/36 30/133/79 27/129/80
s off
f 27/129/81 30/133/82 32/137/83 28/134/84
s 14
f 28/29/85 32/33/86 33/34/87 29/30/88
s 9
f 13/77/45 18/71/48 34/81/89 30/85/90
s 15
f 30/37/91 34/40/92 35/41/93 31/36/94
s 16
f 36/144/95 38/145/96 39/146/97 37/147/98
s 2
f 91/67/99 88/64/8 87/63/7 92/68/100
s 3
f 40/5/101 41/6/102 7/3/11 5/2/10
s 4
f 66/92/13 68/95/16 69/98/103 70/99/104
s off
f 39/146/105 41/152/106 40/153/107 37/147/108
s 17
f 38/145/109 42/150/110 43/151/111 39/146/112
s off
f 39/146/113 43/151/114 44/159/115 41/152/116
s 6
f 41/6/117 44/9/118 12/7/31 7/3/30
s 18
f 42/150/119 45/157/120 46/158/121 43/151/122
s off
f 43/151/123 46/158/124 47/162/125 44/159/126
s 8
f 44/9/127 47/12/128 17/10/43 12/7/42
s 19
f 45/89/129 48/84/130 49/83/131 46/90/132
s 10
f 46/23/133 49/24/134 20/21/51 15/20/50
s 16
f 36/144/95 50/148/135 51/149/136 38/145/96
s 2
f 91/67/99 93/74/137 89/69/55 88/64/8
s 11
f 52/31/138 23/28/60 25/27/59 53/32/139
s 12
f 31/36/61 56/39/140 57/38/141 33/34/62
s off
f 51/149/142 50/148/143 52/154/144 53/155/145
s 17
f 38/145/109 51/149/146 54/156/147 42/150/110
s off
f 51/149/148 53/155/149 55/160/150 54/156/151
s 13
f 53/32/152 25/27/78 29/30/77 55/35/153
s 18
f 42/150/119 54/156/154 56/161/155 45/157/120
s off
f 54/156/156 55/160/157 57/163/158 56/161/159
s 14
f 55/35/160 29/30/88 33/34/87 57/38/161
s 19
f 45/89/129 56/91/162 58/88/163 48/84/130
s 15
f 56/39/164 31/36/94 35/41/93 58/42/165
s off
f 15/43/166 14/44/167 59/45/168 60/46/169
f 14/127/170 16/132/171 61/135/172 59/136/173
f 16/11/174 17/10/175 62/13/176 61/14/177
f 17/10/178 47/12/179 63/15/180 62/13/181
f 47/162/182 46/158/183 64/164/184 63/165/185
f 46/47/186 15/43/187 60/46/188 64/48/189
f 95/104/190 94/105/191 96/102/192 97/101/193
f 59/136/194 61/135/195 67/138/196 65/139/197
f 61/14/198 62/13/199 68/16/200 67/17/201
f 62/13/202 63/15/203 69/18/204 68/16/205
f 63/165/206 64/164/207 70/166/208 69/167/209
f 98/106/210 95/104/211 97/101/212 99/103/213
f 60/107/214 59/108/215 71/109/216 72/110/217
f 59/136/218 65/139/219 73/140/220 71/141/221
f 65/93/222 66/92/223 74/96/224 73/97/225
f 64/113/226 60/107/227 72/110/228 75/114/229
f 66/92/230 70/99/231 76/100/232 74/96/233
f 70/166/234 64/164/235 75/168/236 76/169/237
f 18/71/238 19/72/239 78/66/240 77/65/241
f 19/72/242 20/79/243 79/80/244 78/66/245
f 35/86/246 34/81/247 81/73/248 80/87/249
f 34/81/250 18/71/251 77/65/252 81/73/253
f 20/79/254 49/83/255 83/75/256 79/80/257
f 49/83/258 48/84/259 82/76/260 83/75/261
f 48/84/262 58/88/263 84/82/264 82/76/265
f 58/88/266 35/86/267 80/87/268 84/82/269
f 77/65/270 78/66/271 86/62/272 85/61/273
f 78/49/274 79/50/275 87/51/276 86/52/277
f 80/55/278 81/56/279 90/57/280 89/58/281
f 81/73/282 77/65/283 85/61/284 90/70/285
f 79/50/286 83/53/287 92/54/288 87/51/289
f 83/75/290 82/76/291 91/67/292 92/68/293
f 82/76/294 84/82/295 93/74/296 91/67/297
f 84/59/298 80/55/299 89/58/300 93/60/301
f 72/110/302 71/109/303 94/111/304 95/112/305
f 71/141/306 73/140/307 96/142/308 94/143/309
f 73/97/310 74/96/311 97/101/312 96/102/313
f 75/114/314 72/110/315 95/112/316 98/115/317
f 74/96/318 76/100/319 99/103/320 97/101/321
f 76/169/322 75/168/323 98/170/324 99/171/325
