# This file uses centimeters as units for non-parametric coordinates.

mtllib joy_base_mesh.mtl
g default
v -0.375000 0.000000 0.375000
v 0.375000 0.000000 0.375000
v -0.375000 0.000000 -0.375000
v 0.375000 0.000000 -0.375000
v -0.295211 0.247263 0.295211
v 0.295211 0.247263 0.295211
v 0.295211 0.247263 -0.295211
v -0.295211 0.247263 -0.295211
v -0.223008 0.216270 0.223008
v 0.223008 0.216270 0.223008
v 0.223008 0.216270 -0.223008
v -0.223008 0.216270 -0.223008
v -0.157083 0.135595 0.157083
v 0.157083 0.135595 0.157083
v 0.157083 0.135595 -0.157083
v -0.157083 0.135595 -0.157083
v -0.372106 0.162014 0.372106
v -0.348212 0.233197 0.348212
v 0.372106 0.162014 0.372106
v 0.348212 0.233197 0.348212
v -0.372106 0.162014 -0.372106
v -0.348212 0.233197 -0.348212
v 0.372106 0.162014 -0.372106
v 0.348212 0.233197 -0.348212
v -0.375000 0.088040 0.375000
v 0.000000 0.162014 -0.496141
v 0.375000 0.088040 -0.375000
v 0.000000 0.000000 -0.500000
v -0.375000 0.088040 -0.375000
v 0.500000 0.000000 0.000000
v 0.496141 0.162014 0.000000
v -0.500000 0.000000 0.000000
v -0.496141 0.162014 0.000000
v -0.363422 0.207855 0.363422
v -0.464283 0.233197 0.000000
v -0.363422 0.207855 -0.363422
v -0.325737 0.245670 0.325737
v -0.325737 0.245670 -0.325737
v 0.000000 0.233197 0.464283
v 0.325737 0.245670 0.325737
v 0.363422 0.207855 0.363422
v 0.000000 0.233197 -0.464283
v 0.363422 0.207855 -0.363422
v 0.325737 0.245670 -0.325737
v 0.464283 0.233197 0.000000
v 0.000000 0.124017 0.212062
v 0.212062 0.124017 0.000000
v 0.000000 0.124017 -0.212062
v -0.212062 0.124017 0.000000
v 0.000000 0.247263 0.393614
v 0.255846 0.239964 0.255846
v 0.000000 0.216270 0.297344
v -0.255846 0.239964 0.255846
v 0.393614 0.247263 0.000000
v 0.255846 0.239964 -0.255846
v 0.297344 0.216270 0.000000
v 0.000000 0.247263 -0.393614
v -0.255846 0.239964 -0.255846
v 0.000000 0.216270 -0.297344
v -0.393614 0.247263 0.000000
v -0.297344 0.216270 0.000000
v 0.212062 0.168675 0.212062
v -0.212062 0.168675 0.212062
v 0.212062 0.168675 -0.212062
v -0.212062 0.168675 -0.212062
v 0.000000 0.000000 0.500000
v 0.375000 0.088040 0.375000
v 0.000000 0.162014 0.496141
v 0.000000 0.109131 0.000000
v 0.000000 0.239964 0.341128
v 0.341128 0.239964 0.000000
v 0.000000 0.239964 -0.341128
v -0.341128 0.239964 0.000000
v 0.000000 0.168675 0.282749
v 0.282749 0.168675 0.000000
v 0.000000 0.168675 -0.282749
v -0.282749 0.168675 0.000000
v 0.000000 0.088040 0.500000
v 0.000000 0.088040 -0.500000
v 0.500000 0.088040 0.000000
v -0.500000 0.088040 0.000000
v -0.484563 0.207855 0.000000
v -0.434316 0.245670 0.000000
v 0.000000 0.245670 0.434316
v 0.000000 0.207855 0.484563
v 0.000000 0.207855 -0.484563
v 0.000000 0.245670 -0.434316
v 0.434316 0.245670 0.000000
v 0.484563 0.207855 0.000000
vt 0.281928 0.626805
vt 0.281928 0.769668
vt 0.251438 0.769668
vt 0.251438 0.633818
vt 0.281928 0.912531
vt 0.251438 0.905519
vt 0.208678 0.626805
vt 0.208678 0.769668
vt 0.178188 0.769668
vt 0.178188 0.633818
vt 0.208678 0.912531
vt 0.178188 0.905519
vt 0.848618 0.966894
vt 0.848618 0.726662
vt 0.905018 0.726662
vt 0.905018 0.966894
vt 0.848618 0.486430
vt 0.905018 0.486430
vt 0.952407 0.726662
vt 0.952407 0.965039
vt 0.952407 0.488284
vt 0.981774 0.959477
vt 0.981774 0.726662
vt 0.981774 0.493847
vt 0.998008 0.949733
vt 0.998008 0.726662
vt 0.998008 0.503591
vt 0.693092 0.966894
vt 0.693092 0.726662
vt 0.749492 0.726662
vt 0.749492 0.966894
vt 0.693092 0.486430
vt 0.749492 0.486430
vt 0.796881 0.726662
vt 0.796881 0.965039
vt 0.796881 0.488284
vt 0.826248 0.726662
vt 0.826248 0.959477
vt 0.826248 0.493847
vt 0.842482 0.726662
vt 0.842482 0.949733
vt 0.842482 0.503591
vt 0.405192 0.908570
vt 0.369972 0.807940
vt 0.505822 0.807940
vt 0.505822 0.943791
vt 0.369972 0.943791
vt 0.324688 0.807940
vt 0.405192 0.707310
vt 0.505822 0.672089
vt 0.641673 0.807940
vt 0.606453 0.908570
vt 0.505822 0.989074
vt 0.369972 0.672089
vt 0.505822 0.626805
vt 0.606453 0.707310
vt 0.686957 0.807940
vt 0.641673 0.943791
vt 0.641673 0.672089
vt 0.110303 0.123277
vt 0.299420 0.060237
vt 0.299420 0.093861
vt 0.135520 0.148494
vt 0.090747 0.103721
vt 0.299420 0.034163
vt 0.488537 0.123277
vt 0.463320 0.148494
vt 0.299420 0.121910
vt 0.156557 0.169531
vt 0.047263 0.312394
vt 0.080887 0.312394
vt 0.021189 0.312394
vt 0.076349 0.089323
vt 0.299420 0.014966
vt 0.508093 0.103721
vt 0.551577 0.312394
vt 0.517953 0.312394
vt 0.442283 0.169531
vt 0.108936 0.312394
vt 0.110303 0.501512
vt 0.135520 0.476294
vt 0.090747 0.521067
vt 0.001992 0.312394
vt 0.066605 0.079579
vt 0.299420 0.001974
vt 0.522491 0.089323
vt 0.577651 0.312394
vt 0.488537 0.501512
vt 0.463320 0.476294
vt 0.489904 0.312394
vt 0.156557 0.455257
vt 0.299420 0.564551
vt 0.299420 0.530927
vt 0.299420 0.590625
vt 0.076349 0.535465
vt 0.532235 0.079579
vt 0.596848 0.312394
vt 0.508093 0.521067
vt 0.442283 0.455257
vt 0.299420 0.502878
vt 0.299420 0.609822
vt 0.522491 0.535465
vt 0.066605 0.545209
vt 0.299420 0.622814
vt 0.532235 0.545209
vt 0.288063 0.912532
vt 0.288063 0.769669
vt 0.318553 0.769669
vt 0.318553 0.905519
vt 0.288063 0.626806
vt 0.318553 0.633818
vt 0.245303 0.626805
vt 0.245303 0.769668
vt 0.214813 0.769668
vt 0.214813 0.633818
vt 0.245303 0.912531
vt 0.214813 0.905519
vt 0.604413 0.482438
vt 0.604413 0.242206
vt 0.660813 0.242206
vt 0.660813 0.482438
vt 0.604413 0.001974
vt 0.660813 0.001974
vt 0.708202 0.242206
vt 0.708202 0.480584
vt 0.708202 0.003828
vt 0.737569 0.475021
vt 0.737569 0.242206
vt 0.737569 0.009391
vt 0.774105 0.480584
vt 0.774105 0.242206
vt 0.821494 0.242206
vt 0.821494 0.482438
vt 0.744738 0.475021
vt 0.744738 0.242206
vt 0.774105 0.003828
vt 0.821494 0.001974
vt 0.877894 0.242206
vt 0.877894 0.482438
vt 0.744738 0.009391
vt 0.877894 0.001974
vn 0.195317 0.961094 -0.195317
vn -0.000000 0.970722 -0.240205
vn 0.000000 1.000000 0.000000
vn 0.240205 0.970722 0.000000
vn -0.195317 0.961094 -0.195317
vn -0.240205 0.970722 0.000000
vn -0.195317 0.961094 0.195317
vn 0.000000 0.970722 0.240205
vn 0.195317 0.961094 0.195317
vn 0.019604 0.999616 -0.019605
vn 0.000000 0.999292 -0.037629
vn 0.000000 0.964912 -0.262574
vn 0.166461 0.971896 -0.166461
vn -0.019605 0.999616 -0.019605
vn -0.166461 0.971896 -0.166461
vn -0.492561 0.717472 -0.492562
vn 0.000000 0.682653 -0.730742
vn 0.492561 0.717472 -0.492561
vn -0.037629 0.999292 -0.000000
vn -0.262574 0.964912 0.000000
vn -0.019604 0.999616 0.019604
vn -0.166461 0.971896 0.166461
vn -0.492561 0.717472 0.492561
vn -0.730742 0.682654 0.000000
vn -0.000000 0.999292 0.037629
vn 0.000000 0.964912 0.262574
vn 0.019604 0.999616 0.019604
vn 0.166461 0.971896 0.166461
vn 0.492561 0.717472 0.492562
vn -0.000000 0.682653 0.730742
vn 0.037629 0.999292 -0.000000
vn 0.262574 0.964912 -0.000000
vn 0.730742 0.682654 -0.000000
vn -0.000000 0.651197 -0.758909
vn 0.541435 0.643192 -0.541435
vn -0.541435 0.643192 -0.541435
vn -0.758909 0.651197 0.000000
vn -0.541435 0.643192 0.541435
vn 0.000000 0.651196 0.758909
vn 0.541435 0.643192 0.541435
vn 0.758909 0.651197 0.000000
vn -0.707107 0.000000 0.707107
vn 0.000000 0.000000 1.000000
vn -0.000000 0.023628 0.999721
vn -0.706886 0.024987 0.706886
vn 0.707107 0.000000 0.707107
vn 0.706886 0.024987 0.706886
vn 0.701088 0.130193 0.701088
vn -0.000000 0.124276 0.992248
vn -0.701088 0.130193 0.701088
vn -0.701088 0.130193 -0.701088
vn -0.000000 0.124276 -0.992248
vn -0.000000 0.023628 -0.999721
vn -0.706886 0.024987 -0.706886
vn 0.701088 0.130194 -0.701088
vn 0.706886 0.024988 -0.706886
vn 0.707107 0.000000 -0.707107
vn 0.000000 0.000000 -1.000000
vn -0.707107 0.000000 -0.707107
vn 1.000000 0.000000 0.000000
vn 0.999721 0.023628 0.000000
vn 0.992248 0.124276 -0.000000
vn -1.000000 0.000000 0.000000
vn -0.999721 0.023628 -0.000000
vn -0.992248 0.124276 -0.000000
vn -0.648336 0.399152 0.648336
vn -0.921562 0.388232 -0.000000
vn -0.446914 0.774942 0.446914
vn -0.639253 0.768997 0.000000
vn -0.446914 0.774942 -0.446914
vn -0.648336 0.399152 -0.648336
vn -0.169505 0.970843 0.169505
vn -0.237395 0.971413 0.000000
vn -0.169505 0.970843 -0.169505
vn -0.000000 0.971413 0.237395
vn 0.000000 0.768997 0.639253
vn 0.446914 0.774942 0.446914
vn 0.169505 0.970843 0.169505
vn -0.000000 0.388233 0.921561
vn 0.648335 0.399152 0.648336
vn -0.000000 0.388232 -0.921562
vn -0.000000 0.768997 -0.639253
vn 0.446914 0.774942 -0.446914
vn 0.648335 0.399152 -0.648336
vn -0.000000 0.971413 -0.237395
vn 0.169505 0.970843 -0.169505
vn 0.237395 0.971413 0.000000
vn 0.639253 0.768996 -0.000000
vn 0.921562 0.388232 -0.000000
s 1
g joy_base
usemtl initialShadingGroup
f 13/43/1 46/44/2 69/45/3 49/46/4
f 46/44/2 14/49/5 47/50/6 69/45/3
f 69/45/3 47/50/6 15/56/7 48/51/8
f 49/46/4 69/45/3 48/51/8 16/52/9
f 5/60/10 50/61/11 70/62/12 53/63/13
f 50/61/11 6/66/14 51/67/15 70/62/12
f 70/62/12 51/67/15 10/78/16 52/68/17
f 53/63/13 70/62/12 52/68/17 9/69/18
f 6/66/14 54/76/19 71/77/20 51/67/15
f 54/76/19 7/88/21 55/89/22 71/77/20
f 71/77/20 55/89/22 11/99/23 56/90/24
f 51/67/15 71/77/20 56/90/24 10/78/16
f 7/88/21 57/92/25 72/93/26 55/89/22
f 57/92/25 8/80/27 58/81/28 72/93/26
f 72/93/26 58/81/28 12/91/29 59/100/30
f 55/89/22 72/93/26 59/100/30 11/99/23
f 8/80/27 60/70/31 73/71/32 58/81/28
f 60/70/31 5/60/10 53/63/13 73/71/32
f 73/71/32 53/63/13 9/69/18 61/79/33
f 58/81/28 73/71/32 61/79/33 12/91/29
f 9/106/18 52/107/17 74/108/34 63/109/35
f 52/107/17 10/110/16 62/111/36 74/108/34
f 74/48/34 62/54/36 14/49/5 46/44/2
f 63/47/35 74/48/34 46/44/2 13/43/1
f 10/1/16 56/2/24 75/3/37 62/4/36
f 56/2/24 11/5/23 64/6/38 75/3/37
f 75/55/37 64/59/38 15/56/7 47/50/6
f 62/54/36 75/55/37 47/50/6 14/49/5
f 11/112/23 59/113/30 76/114/39 64/115/38
f 59/113/30 12/116/29 65/117/40 76/114/39
f 76/57/39 65/58/40 16/52/9 48/51/8
f 64/59/38 76/57/39 48/51/8 15/56/7
f 12/7/29 61/8/33 77/9/41 65/10/40
f 61/8/33 9/11/18 63/12/35 77/9/41
f 77/53/41 63/47/35 13/43/1 49/46/4
f 65/58/40 77/53/41 49/46/4 16/52/9
f 1/118/42 66/119/43 78/120/44 25/121/45
f 66/119/43 2/122/46 67/123/47 78/120/44
f 78/120/44 67/123/47 19/126/48 68/124/49
f 25/121/45 78/120/44 68/124/49 17/125/50
f 21/130/51 26/131/52 79/132/53 29/133/54
f 26/131/52 23/136/55 27/137/56 79/132/53
f 79/132/53 27/137/56 4/141/57 28/138/58
f 29/133/54 79/132/53 28/138/58 3/139/59
f 2/13/46 30/14/60 80/15/61 67/16/47
f 30/14/60 4/17/57 27/18/56 80/15/61
f 80/15/61 27/18/56 23/21/55 31/19/62
f 67/16/47 80/15/61 31/19/62 19/20/48
f 3/28/59 32/29/63 81/30/64 29/31/54
f 32/29/63 1/32/42 25/33/45 81/30/64
f 81/30/64 25/33/45 17/36/50 33/34/65
f 29/31/54 81/30/64 33/34/65 21/35/51
f 17/36/50 34/39/66 82/37/67 33/34/65
f 34/39/66 18/42/68 35/40/69 82/37/67
f 82/37/67 35/40/69 22/41/70 36/38/71
f 33/34/65 82/37/67 36/38/71 21/35/51
f 18/73/68 37/64/72 83/72/73 35/83/69
f 37/64/72 5/60/10 60/70/31 83/72/73
f 83/72/73 60/70/31 8/80/27 38/82/74
f 35/83/69 83/72/73 38/82/74 22/95/70
f 5/60/10 37/64/72 84/65/75 50/61/11
f 37/64/72 18/73/68 39/74/76 84/65/75
f 84/65/75 39/74/76 20/86/77 40/75/78
f 50/61/11 84/65/75 40/75/78 6/66/14
f 18/73/68 34/84/66 85/85/79 39/74/76
f 34/127/66 17/125/50 68/124/49 85/128/79
f 85/128/79 68/124/49 19/126/48 41/129/80
f 39/74/76 85/85/79 41/96/80 20/86/77
f 21/130/51 36/134/71 86/135/81 26/131/52
f 36/103/71 22/95/70 42/101/82 86/104/81
f 86/104/81 42/101/82 24/102/83 43/105/84
f 26/131/52 86/135/81 43/140/84 23/136/55
f 22/95/70 38/82/74 87/94/85 42/101/82
f 38/82/74 8/80/27 57/92/25 87/94/85
f 87/94/85 57/92/25 7/88/21 44/98/86
f 42/101/82 87/94/85 44/98/86 24/102/83
f 6/66/14 40/75/78 88/87/87 54/76/19
f 40/75/78 20/86/77 45/97/88 88/87/87
f 88/87/87 45/97/88 24/102/83 44/98/86
f 54/76/19 88/87/87 44/98/86 7/88/21
f 20/25/77 41/22/80 89/23/89 45/26/88
f 41/22/80 19/20/48 31/19/62 89/23/89
f 89/23/89 31/19/62 23/21/55 43/24/84
f 45/26/88 89/23/89 43/24/84 24/27/83
