# This file uses centimeters as units for non-parametric coordinates.

mtllib door_frame.mtl
g default
v 0.186060 0.007143 0.000000
v -0.186060 0.007143 0.000000
v -0.364191 0.998394 0.000000
v -0.364191 0.160531 0.025193
v 0.278599 0.056672 0.000000
v 0.364191 0.160531 0.025193
v -0.262931 1.161489 0.025193
v 0.364191 0.998394 0.025193
v -0.161895 1.215842 0.025193
v 0.161895 1.215842 0.000000
v 0.262931 1.161489 0.000000
v -0.278599 0.056672 0.025193
v -0.748831 0.000000 -0.057063
v -0.740025 0.008806 -0.065871
v 0.748831 0.000000 -0.057063
v 0.740025 0.008806 -0.065871
v 0.748831 0.000000 0.057063
v 0.740025 0.008806 0.065871
v -0.748831 0.000000 0.057063
v -0.740025 0.008806 0.065871
v -0.187934 0.000033 0.065869
v -0.185673 0.008687 0.056944
v 0.185673 0.008687 0.056945
v 0.187851 0.000001 0.065869
v -0.362647 0.161085 -0.056945
v -0.371333 0.157967 -0.065871
v -0.362647 0.997954 -0.056945
v -0.371333 1.000431 -0.065871
v 0.277602 0.057889 -0.056945
v 0.283213 0.051041 -0.065869
v 0.185673 0.008687 -0.056944
v 0.187939 0.000012 -0.065869
v -0.362647 0.997954 0.056945
v -0.371333 1.000431 0.065871
v -0.362647 0.161085 0.056945
v -0.371333 0.157967 0.065871
v 0.277602 0.057889 0.056945
v 0.283213 0.051041 0.065869
v 0.362647 0.161085 -0.056945
v 0.371333 0.157967 -0.065871
v 0.362647 0.161085 0.056945
v 0.371333 0.157967 0.065871
v -0.261837 1.160325 -0.056945
v -0.267994 1.166876 -0.065869
v -0.261837 1.160325 0.056945
v -0.267994 1.166876 0.065869
v 0.362647 0.997954 -0.056945
v 0.371333 1.000431 -0.065871
v -0.161506 1.214298 -0.056945
v -0.163694 1.222985 -0.065869
v 0.362647 0.997954 0.056945
v 0.371333 1.000431 0.065871
v -0.161506 1.214298 0.056945
v -0.163694 1.222985 0.065869
v 0.161506 1.214298 -0.056945
v 0.163694 1.222985 -0.065869
v 0.161506 1.214298 0.056945
v 0.163694 1.222985 0.065869
v 0.261837 1.160325 -0.056945
v 0.267994 1.166876 -0.065869
v -0.277602 0.057889 -0.056945
v -0.283213 0.051041 -0.065869
v -0.185673 0.008687 -0.056945
v -0.187851 0.000001 -0.065869
v -0.748831 1.416391 -0.057063
v -0.740025 1.407585 -0.065871
v -0.748831 1.416391 0.057063
v -0.740025 1.407585 0.065871
v 0.748831 1.416391 0.057063
v 0.740025 1.407585 0.065871
v 0.748831 1.416391 -0.057063
v 0.740025 1.407585 -0.065871
v 0.261837 1.160325 0.056945
v 0.267994 1.166876 0.065869
v -0.277602 0.057889 0.056945
v -0.283213 0.051041 0.065869
v -0.396421 0.990760 -0.090960
v -0.383877 0.995596 -0.087599
v -0.374694 0.999135 -0.078416
v -0.736664 1.398865 -0.078416
v -0.727481 1.375044 -0.087599
v -0.714937 1.342503 -0.090960
v -0.396421 0.174881 -0.090960
v -0.383877 0.166424 -0.087599
v -0.374694 0.160233 -0.078416
v -0.714937 0.046019 -0.090960
v -0.727481 0.027413 -0.087599
v -0.736664 0.013792 -0.078416
v 0.374694 0.999135 -0.078416
v 0.383877 0.995596 -0.087599
v 0.396421 0.990760 -0.090960
v 0.714937 1.342503 -0.090960
v 0.727481 1.375044 -0.087599
v 0.736664 1.398865 -0.078416
v 0.714937 0.046019 -0.090960
v 0.727481 0.027413 -0.087599
v 0.736664 0.013792 -0.078416
v 0.396421 0.174881 -0.090960
v 0.383877 0.166424 -0.087599
v 0.374694 0.160233 -0.078416
v -0.396421 0.174881 0.090960
v -0.383877 0.166424 0.087599
v -0.374694 0.160233 0.078416
v -0.736664 0.013792 0.078416
v -0.727481 0.027413 0.087599
v -0.714937 0.046019 0.090960
v -0.396421 0.990760 0.090960
v -0.383877 0.995596 0.087599
v -0.374694 0.999135 0.078416
v -0.714937 1.342503 0.090960
v -0.727481 1.375044 0.087599
v -0.736664 1.398865 0.078416
v 0.396421 0.990760 0.090960
v 0.383877 0.995596 0.087599
v 0.374694 0.999135 0.078416
v 0.736664 1.398865 0.078416
v 0.727481 1.375044 0.087599
v 0.714937 1.342503 0.090960
v 0.396421 0.174881 0.090960
v 0.383877 0.166424 0.087599
v 0.374694 0.160233 0.078416
v 0.714937 0.046019 0.090960
v 0.727481 0.027413 0.087599
v 0.736664 0.013792 0.078416
vt 0.485155 0.042505
vt 0.485155 0.350595
vt 0.464191 0.350758
vt 0.454917 0.042301
vt 0.488441 0.041357
vt 0.488441 0.351507
vt 0.485155 0.410372
vt 0.454917 0.410800
vt 0.443227 0.350595
vt 0.443227 0.042505
vt 0.485155 0.004513
vt 0.454917 0.004065
vt 0.488441 0.001992
vt 0.493060 0.351030
vt 0.493060 0.042191
vt 0.488441 0.412784
vt 0.443227 0.410372
vt 0.439941 0.351507
vt 0.439941 0.041357
vt 0.443227 0.004513
vt 0.493060 0.498190
vt 0.488441 0.501400
vt 0.496441 0.349727
vt 0.496441 0.044470
vt 0.439942 0.412784
vt 0.435323 0.042191
vt 0.435323 0.351030
vt 0.439942 0.001992
vt 0.496441 0.489420
vt 0.439941 0.501400
vt 0.435323 0.498190
vt 0.431942 0.044470
vt 0.431942 0.349727
vt 0.431942 0.489420
vt 0.514874 0.350595
vt 0.514874 0.042505
vt 0.545113 0.042301
vt 0.545113 0.350758
vt 0.511588 0.041357
vt 0.511588 0.351507
vt 0.514874 0.004513
vt 0.535838 0.004065
vt 0.556802 0.042505
vt 0.556802 0.350595
vt 0.514874 0.410372
vt 0.535838 0.410800
vt 0.511589 0.001992
vt 0.511589 0.412784
vt 0.506970 0.351030
vt 0.506970 0.042191
vt 0.556802 0.004513
vt 0.560088 0.041357
vt 0.560088 0.351507
vt 0.556802 0.410372
vt 0.511588 0.501400
vt 0.506970 0.498190
vt 0.503589 0.349727
vt 0.503589 0.044470
vt 0.560088 0.001992
vt 0.564707 0.351030
vt 0.564707 0.042191
vt 0.560088 0.412784
vt 0.503589 0.489420
vt 0.564707 0.498190
vt 0.560088 0.501400
vt 0.568087 0.349727
vt 0.568087 0.044470
vt 0.568087 0.489420
vt 0.366457 0.520190
vt 0.361839 0.516980
vt 0.361839 0.007069
vt 0.366457 0.005234
vt 0.358458 0.508211
vt 0.358458 0.012084
vt 0.369700 0.001992
vt 0.369700 0.523432
vt 0.384690 0.516980
vt 0.380072 0.520190
vt 0.380072 0.005234
vt 0.384690 0.007069
vt 0.376829 0.001992
vt 0.376829 0.523432
vt 0.388071 0.508211
vt 0.388071 0.012084
vt 0.416814 0.005234
vt 0.421432 0.007069
vt 0.421432 0.516980
vt 0.416814 0.520190
vt 0.424813 0.012084
vt 0.424813 0.508211
vt 0.413571 0.001992
vt 0.413571 0.523432
vt 0.403199 0.520190
vt 0.398581 0.516980
vt 0.398581 0.007069
vt 0.403199 0.005234
vt 0.395200 0.508211
vt 0.395200 0.012084
vt 0.406442 0.001992
vt 0.406442 0.523432
vt 0.630956 0.674501
vt 0.630956 0.537790
vt 0.651920 0.537648
vt 0.651920 0.674643
vt 0.627671 0.675333
vt 0.627671 0.536989
vt 0.630956 0.503947
vt 0.651920 0.503580
vt 0.672884 0.537790
vt 0.672884 0.674501
vt 0.630956 0.708344
vt 0.642645 0.708711
vt 0.627671 0.710410
vt 0.627671 0.501881
vt 0.672884 0.503947
vt 0.676170 0.536956
vt 0.676170 0.675302
vt 0.672884 0.708344
vt 0.676170 0.501881
vt 0.676170 0.710410
vt 0.320938 0.752171
vt 0.320938 0.715234
vt 0.351176 0.715377
vt 0.351176 0.752573
vt 0.317652 0.754437
vt 0.317652 0.716039
vt 0.320938 0.596318
vt 0.341902 0.596175
vt 0.362866 0.715234
vt 0.362866 0.752171
vt 0.317652 0.595512
vt 0.320938 0.559381
vt 0.341902 0.558979
vt 0.362866 0.596318
vt 0.366151 0.754437
vt 0.366151 0.716039
vt 0.317652 0.557115
vt 0.362866 0.559381
vt 0.366151 0.595512
vt 0.366151 0.557115
vt 0.303870 0.557115
vt 0.308488 0.558352
vt 0.308488 0.691610
vt 0.303870 0.692848
vt 0.311869 0.561733
vt 0.311869 0.688230
vt 0.293468 0.558352
vt 0.298087 0.557115
vt 0.298087 0.692848
vt 0.293468 0.691610
vt 0.290087 0.561733
vt 0.290087 0.688230
vt 0.279686 0.558352
vt 0.284304 0.557115
vt 0.284304 0.692848
vt 0.279686 0.691610
vt 0.276305 0.561733
vt 0.276305 0.688230
vt 0.267141 0.691610
vt 0.262523 0.692848
vt 0.262523 0.557115
vt 0.267141 0.558352
vt 0.270522 0.688230
vt 0.270522 0.561733
vt 0.023674 0.550111
vt 0.091634 0.337936
vt 0.112291 0.376333
vt 0.023674 0.005234
vt 0.091634 0.217409
vt 0.173567 0.414378
vt 0.020432 0.553352
vt 0.020432 0.001992
vt 0.112291 0.179011
vt 0.173567 0.140967
vt 0.439098 0.708413
vt 0.435868 0.505162
vt 0.454647 0.540239
vt 0.494011 0.572680
vt 0.262192 0.217409
vt 0.241536 0.179011
vt 0.330152 0.005234
vt 0.180260 0.140967
vt 0.330152 0.550110
vt 0.262192 0.337936
vt 0.241536 0.376333
vt 0.333394 0.553352
vt 0.333394 0.001992
vt 0.180260 0.414378
vt 0.411299 0.695369
vt 0.426848 0.527195
vt 0.430085 0.730444
vt 0.371934 0.662928
vt 0.618646 0.708444
vt 0.563733 0.572711
vt 0.603097 0.540270
vt 0.621888 0.505162
vt 0.343329 0.546868
vt 0.340087 0.343587
vt 0.340091 0.205241
vt 0.343329 0.001992
vt 0.503036 0.505162
vt 0.557950 0.640895
vt 0.518585 0.673336
vt 0.499795 0.708444
vt 0.349273 0.001992
vt 0.352514 0.205273
vt 0.352503 0.343618
vt 0.349273 0.546869
vt 0.701733 0.141685
vt 0.697115 0.143465
vt 0.579854 0.013972
vt 0.575236 0.001992
vt 0.701733 0.446942
vt 0.697115 0.443829
vt 0.579854 0.491269
vt 0.575236 0.498119
vt 0.713962 0.143465
vt 0.709344 0.141685
vt 0.835841 0.001992
vt 0.831223 0.013972
vt 0.713962 0.443829
vt 0.709344 0.446942
vt 0.835841 0.498119
vt 0.831223 0.491269
vt 0.940730 0.553058
vt 0.936112 0.556171
vt 0.818851 0.508731
vt 0.814233 0.501881
vt 0.940730 0.858315
vt 0.936112 0.856535
vt 0.818851 0.986028
vt 0.814233 0.998008
vt 0.681953 0.858315
vt 0.686571 0.856535
vt 0.803832 0.986028
vt 0.808450 0.998008
vt 0.681953 0.553058
vt 0.686571 0.556171
vt 0.803832 0.508731
vt 0.808450 0.501881
vt 0.011247 0.001992
vt 0.014489 0.005234
vt 0.014489 0.550110
vt 0.011247 0.553352
vt 0.005120 0.553352
vt 0.001878 0.550110
vt 0.001878 0.005234
vt 0.005120 0.001992
vn 0.000000 -0.707158 -0.707056
vn 0.000000 -0.707158 -0.707056
vn 0.000000 -0.707158 -0.707056
vn 0.000000 -0.707158 -0.707056
vn -0.707157 0.000000 -0.707057
vn -0.707157 0.000000 -0.707057
vn -0.707157 0.000000 -0.707057
vn -0.707157 0.000000 -0.707057
vn 0.707157 0.000000 -0.707057
vn 0.707157 0.000000 -0.707057
vn 0.707157 0.000000 -0.707057
vn 0.707157 0.000000 -0.707057
vn 0.000000 -0.707156 0.707057
vn 0.000000 -0.707156 0.707057
vn 0.000000 -0.707156 0.707057
vn 0.000000 -0.707156 0.707057
vn 0.707155 0.000000 0.707059
vn 0.707155 0.000000 0.707059
vn 0.707155 0.000000 0.707059
vn 0.707155 0.000000 0.707059
vn -0.707156 0.000000 0.707057
vn -0.707156 0.000000 0.707057
vn -0.707156 0.000000 0.707057
vn -0.707156 0.000000 0.707057
vn 0.076294 0.705637 0.704454
vn 0.075251 0.705825 0.704378
vn 0.463270 0.537963 0.704257
vn 0.463267 0.537965 0.704257
vn -0.075692 0.705787 0.704368
vn -0.075690 0.705788 0.704368
vn -0.463295 0.538058 0.704167
vn -0.463295 0.538058 0.704167
vn 0.703822 0.064500 -0.707442
vn 0.703822 0.064499 -0.707442
vn 0.704816 -0.071647 -0.705763
vn 0.704816 -0.071647 -0.705763
vn 0.463295 0.538059 -0.704167
vn 0.463295 0.538058 -0.704167
vn 0.516139 -0.480709 -0.708886
vn 0.516138 -0.480709 -0.708886
vn -0.463170 0.537802 -0.704444
vn -0.463163 0.537808 -0.704445
vn -0.076244 0.705203 -0.704894
vn -0.075204 0.705391 -0.704818
vn -0.703822 0.064500 -0.707442
vn -0.703822 0.064499 -0.707442
vn 0.075670 0.705452 -0.704707
vn 0.075670 0.705452 -0.704707
vn 0.704815 -0.071647 0.705764
vn 0.704815 -0.071647 0.705764
vn 0.703822 0.064499 0.707442
vn 0.703822 0.064500 0.707442
vn 0.516139 -0.480711 0.708885
vn 0.516139 -0.480710 0.708885
vn -0.703821 0.064499 0.707444
vn -0.703821 0.064500 0.707443
vn -0.704816 -0.071647 -0.705763
vn -0.704816 -0.071647 -0.705763
vn -0.704814 -0.071647 0.705765
vn -0.704814 -0.071647 0.705765
vn 0.090445 -0.702510 -0.705903
vn 0.090445 -0.702510 -0.705903
vn 0.090446 -0.702511 0.705903
vn 0.090446 -0.702511 0.705903
vn -0.516138 -0.480710 -0.708886
vn -0.516139 -0.480709 -0.708886
vn -0.090446 -0.702510 -0.705903
vn -0.090446 -0.702510 -0.705903
vn -0.516138 -0.480709 0.708887
vn -0.516138 -0.480709 0.708887
vn -0.090446 -0.702510 0.705903
vn -0.090446 -0.702510 0.705903
vn 0.000000 0.707153 -0.707061
vn 0.000000 0.707153 -0.707061
vn 0.000000 0.707153 -0.707061
vn 0.000000 0.707153 -0.707061
vn 0.000000 0.707152 0.707062
vn 0.000000 0.707152 0.707062
vn 0.000000 0.707152 0.707062
vn 0.000000 0.707152 0.707062
vn 0.085604 0.995908 -0.028982
vn -0.105761 0.994007 -0.027664
vn -0.105802 0.994387 -0.000000
vn 0.108676 0.994077 0.000909
vn 0.999754 0.000334 0.022192
vn 0.999754 0.000334 0.022192
vn 1.000000 0.000008 0.000519
vn 1.000000 -0.000006 -0.000431
vn -0.667631 0.744088 0.024553
vn -0.105761 0.994007 0.027664
vn -0.654544 0.756022 0.001807
vn 0.999395 -0.000523 -0.034785
vn 0.999395 -0.000523 -0.034785
vn -0.632157 0.774199 -0.031523
vn -0.772842 0.634210 0.022195
vn -0.771513 0.636205 -0.003205
vn -0.769161 0.638108 -0.034777
vn 0.848594 -0.528578 0.022191
vn 0.716946 -0.696798 0.021486
vn 0.730690 -0.682708 -0.001408
vn 0.849495 -0.527592 0.002221
vn 0.758971 -0.649892 -0.040054
vn 0.850265 -0.525205 -0.034786
vn -0.999824 0.000000 0.018790
vn -0.999823 0.000000 0.018790
vn -1.000000 0.000000 0.000093
vn -1.000000 0.000000 0.000074
vn 0.143722 -0.989379 0.021733
vn 0.127757 -0.991805 -0.000959
vn -0.998820 0.000000 -0.048558
vn -0.998820 0.000000 -0.048558
vn 0.096421 -0.994603 -0.038317
vn -0.107929 -0.993874 0.023794
vn -0.125615 -0.992079 0.001009
vn -0.152704 -0.987713 -0.033244
vn -0.748910 -0.662217 0.024537
vn -0.850134 -0.526098 0.022191
vn -0.849495 -0.527592 -0.002231
vn -0.733869 -0.679289 0.001445
vn 0.000001 -0.000004 -1.000000
vn 0.000000 -0.000007 -1.000000
vn 0.000003 0.000002 -1.000000
vn -0.847851 -0.529092 -0.034785
vn -0.708809 -0.704650 -0.032521
vn 0.000003 -0.000007 1.000000
vn 0.000002 0.000004 1.000000
vn 0.000003 -0.000001 1.000000
vn -0.000000 -0.000007 1.000000
vn -0.000003 0.000001 1.000000
vn -0.000001 -0.000004 1.000000
vn -0.000003 -0.000001 -1.000000
vn -0.000003 -0.000007 -1.000000
vn -0.000002 0.000004 -1.000000
vn 0.124120 0.991915 0.026451
vn 0.625014 0.779472 -0.042198
vn 0.654883 0.755728 -0.001795
vn 0.770798 0.635226 -0.048559
vn 0.771708 0.635976 0.000093
vn 0.665187 0.746395 0.020509
vn 0.771572 0.635864 0.018790
vn 0.000005 0.000005 -1.000000
vn 0.000003 -0.000007 -1.000000
vn 0.000004 -0.000009 -1.000000
vn 0.000003 -0.000001 -1.000000
vn 0.000002 0.000004 -1.000000
vn 0.000000 0.000144 1.000000
vn 0.000000 0.000144 1.000000
vn 0.000000 0.000144 1.000000
vn 0.000000 0.000144 1.000000
vn -0.000004 -0.000009 -1.000000
vn -0.000003 0.000002 -1.000000
vn -0.000001 -0.000004 -1.000000
vn -0.000005 0.000005 -1.000000
vn -0.000000 -0.000007 -1.000000
vn -0.000003 -0.000006 1.000000
vn -0.000003 -0.000009 1.000000
vn -0.000003 -0.000001 1.000000
vn -0.000002 0.000004 1.000000
vn -0.000000 0.000141 -1.000000
vn -0.000000 0.000141 -1.000000
vn -0.000000 0.000141 -1.000000
vn -0.000000 0.000141 -1.000000
vn 0.000004 -0.000009 1.000000
vn 0.000001 -0.000004 1.000000
vn 0.000005 0.000004 1.000000
vn 0.000003 0.000002 1.000000
vn 0.000000 -0.000007 1.000000
vn -0.000005 0.000004 1.000000
vn 0.715998 0.648362 -0.258792
vn 0.715998 0.648362 -0.258792
vn 0.715998 0.648362 -0.258792
vn 0.715998 0.648362 -0.258792
vn 0.656850 0.189378 -0.729852
vn 0.504767 0.144602 -0.851058
vn 0.524145 0.474632 -0.707104
vn 0.524145 0.474632 -0.707104
vn 0.009150 0.002549 -0.999955
vn -0.028588 0.009895 -0.999542
vn -0.139631 0.048331 -0.989023
vn -0.009150 0.002549 -0.999955
vn -0.504767 0.144602 -0.851058
vn 0.139631 0.048331 -0.989023
vn 0.028588 0.009895 -0.999542
vn -0.656850 0.189378 -0.729852
vn -0.524145 0.474632 -0.707104
vn -0.524145 0.474632 -0.707104
vn -0.715998 0.648362 -0.258792
vn -0.715998 0.648362 -0.258792
vn -0.715998 0.648362 -0.258792
vn -0.715998 0.648362 -0.258792
vn 0.362261 -0.895428 0.258795
vn 0.362261 -0.895428 0.258795
vn 0.362261 -0.895428 0.258795
vn 0.362261 -0.895428 0.258795
vn 0.265192 -0.655495 0.707107
vn 0.488881 -0.175469 0.854521
vn 0.030131 -0.368469 0.929152
vn 0.265192 -0.655495 0.707106
vn 0.010014 -0.003466 0.999944
vn -0.022345 -0.006226 0.999731
vn -0.715998 0.648362 0.258791
vn -0.715998 0.648362 0.258791
vn -0.715998 0.648362 0.258791
vn -0.715998 0.648362 0.258791
vn -0.656851 0.189377 0.729852
vn -0.504767 0.144602 0.851058
vn -0.524145 0.474632 0.707104
vn -0.524145 0.474632 0.707104
vn -0.009150 0.002549 0.999955
vn 0.028588 0.009895 0.999542
vn 0.139631 0.048331 0.989023
vn 0.010014 -0.003466 -0.999944
vn -0.022345 -0.006226 -0.999731
vn 0.022345 -0.006226 -0.999731
vn -0.010014 -0.003466 -0.999944
vn 0.009150 0.002549 0.999955
vn -0.028588 0.009895 0.999542
vn -0.010014 -0.003466 0.999944
vn 0.022345 -0.006226 0.999731
vn 0.965932 0.000000 -0.258794
vn 0.965933 0.000000 -0.258794
vn 0.965933 0.000000 -0.258794
vn 0.965933 0.000000 -0.258794
vn 0.488881 -0.175469 -0.854521
vn 0.707106 0.000000 -0.707108
vn 0.362261 -0.895428 -0.258795
vn 0.362261 -0.895428 -0.258795
vn 0.362261 -0.895428 -0.258795
vn 0.362261 -0.895428 -0.258795
vn 0.030131 -0.368469 -0.929152
vn 0.265192 -0.655495 -0.707107
vn 0.265192 -0.655495 -0.707107
vn -0.965932 0.000000 -0.258796
vn -0.937225 0.000000 -0.348724
vn -0.918949 0.000000 -0.394376
vn -0.965932 0.000000 -0.258796
vn -0.707107 0.000000 -0.707107
vn -0.707107 0.000000 -0.707107
vn 0.937225 0.000000 -0.348724
vn 0.965932 0.000000 -0.258796
vn 0.965932 0.000000 -0.258796
vn 0.918949 0.000000 -0.394376
vn -0.030131 -0.368469 -0.929152
vn 0.707107 0.000000 -0.707107
vn 0.707107 0.000000 -0.707107
vn -0.362261 -0.895428 -0.258795
vn -0.362261 -0.895428 -0.258795
vn -0.362261 -0.895428 -0.258795
vn -0.362261 -0.895428 -0.258795
vn -0.488881 -0.175469 -0.854521
vn -0.265192 -0.655495 -0.707106
vn -0.265192 -0.655495 -0.707107
vn -0.965933 0.000000 -0.258794
vn -0.965932 0.000000 -0.258794
vn -0.965933 0.000000 -0.258794
vn -0.965933 0.000000 -0.258794
vn -0.707106 0.000000 -0.707108
vn 0.965933 0.000000 0.258794
vn 0.965932 0.000000 0.258794
vn 0.965933 0.000000 0.258794
vn 0.965932 0.000000 0.258794
vn 0.504767 0.144602 0.851058
vn 0.707106 0.000000 0.707107
vn 0.656851 0.189377 0.729852
vn 0.715998 0.648362 0.258792
vn 0.715998 0.648362 0.258792
vn 0.715998 0.648362 0.258792
vn 0.715998 0.648362 0.258792
vn -0.139631 0.048331 0.989023
vn 0.524145 0.474632 0.707104
vn 0.524145 0.474632 0.707104
vn -0.965932 0.000000 0.258796
vn -0.918949 0.000000 0.394376
vn -0.937225 0.000000 0.348724
vn -0.965932 0.000000 0.258796
vn -0.707107 0.000000 0.707107
vn -0.707107 0.000000 0.707107
vn -0.965933 0.000000 0.258794
vn -0.965933 0.000000 0.258794
vn -0.965933 0.000000 0.258794
vn -0.965933 0.000000 0.258794
vn -0.488881 -0.175469 0.854521
vn -0.707106 0.000000 0.707107
vn -0.362262 -0.895429 0.258794
vn -0.362262 -0.895429 0.258794
vn -0.362262 -0.895428 0.258794
vn -0.362262 -0.895428 0.258794
vn -0.030131 -0.368469 0.929152
vn -0.265192 -0.655495 0.707107
vn -0.265192 -0.655495 0.707107
vn 0.965932 0.000000 0.258796
vn 0.937226 0.000000 0.348724
vn 0.918950 0.000000 0.394375
vn 0.965932 0.000000 0.258796
vn 0.707107 0.000000 0.707107
vn 0.707107 0.000000 0.707107
s off
g frame_low
usemtl initialShadingGroup
f 13/245/1 14/246/2 16/247/3 15/248/4
f 14/72/5 13/75/6 65/76/7 66/69/8
f 15/81/9 16/79/10 72/78/11 71/82/12
f 17/241/13 18/242/14 20/243/15 19/244/16
f 18/96/17 17/99/18 69/100/19 70/93/20
f 19/91/21 20/85/22 68/88/23 67/92/24
s 1
f 21/105/25 22/101/26 75/111/27 76/113/28
f 22/101/26 21/105/25 24/106/29 23/102/30
f 23/102/30 24/106/29 38/114/31 37/107/32
s 2
f 25/1/33 26/5/34 28/6/35 27/2/36
f 26/5/34 25/1/33 61/11/37 62/13/38
f 27/2/36 28/6/35 44/16/39 43/7/40
f 29/115/41 30/119/42 32/116/43 31/109/44
f 30/47/42 29/41/41 39/36/45 40/39/46
f 31/109/44 32/116/43 64/117/47 63/110/48
s 1
f 33/9/49 34/18/50 36/19/51 35/10/52
f 34/18/50 33/9/49 45/17/53 46/25/54
f 35/10/52 36/19/51 76/28/28 75/20/27
f 37/51/32 38/59/31 42/52/55 41/43/56
s 2
f 40/39/46 39/36/45 47/35/57 48/40/58
s 1
f 41/43/56 42/52/55 52/53/59 51/44/60
s 2
f 43/121/40 44/125/39 50/126/61 49/122/62
s 1
f 46/135/54 45/130/53 53/129/63 54/136/64
s 2
f 48/40/58 47/35/57 59/45/65 60/48/66
f 49/122/62 50/126/61 56/131/67 55/127/68
s 1
f 51/44/60 52/53/59 74/62/69 73/54/70
f 54/136/64 53/129/63 57/134/71 58/139/72
s 2
f 55/127/68 56/131/67 60/137/66 59/132/65
s 1
f 58/139/72 57/134/71 73/138/70 74/140/69
s 2
f 62/120/38 61/118/37 63/110/48 64/117/47
s off
f 66/165/73 65/171/74 71/172/75 72/168/76
f 67/186/77 68/183/78 70/181/79 69/187/80
s 5
f 22/101/81 23/102/82 1/103/83 2/104/84
s 6
f 25/1/85 27/2/86 3/3/87 4/4/88
s 5
f 29/115/89 31/109/90 1/103/83 5/108/91
s 6
f 33/9/92 35/10/93 4/4/88 3/3/87
s 5
f 23/102/82 37/107/94 5/108/91 1/103/83
f 39/36/95 29/41/89 5/42/91 6/37/96
f 37/51/94 41/43/97 6/37/96 5/42/91
s 7
f 27/2/98 43/7/99 7/8/100 3/3/101
f 45/17/102 33/9/103 3/3/101 7/8/100
s 8
f 47/35/104 39/36/105 6/37/106 8/38/107
s 7
f 43/121/99 49/122/108 9/123/109 7/124/100
s 8
f 41/43/110 51/44/111 8/38/107 6/37/106
s 7
f 53/129/112 45/130/102 7/124/100 9/123/109
f 49/122/108 55/127/113 10/128/114 9/123/109
f 57/134/115 53/129/112 9/123/109 10/128/114
f 59/45/116 47/35/117 8/38/118 11/46/119
f 55/127/113 59/132/116 11/133/119 10/128/114
s 10
f 66/165/120 50/166/121 44/167/122
s 7
f 51/44/123 73/54/124 11/46/119 8/38/118
f 73/138/124 57/134/115 10/128/114 11/133/119
s 11
f 20/175/125 21/176/126 76/177/127
s 12
f 58/179/128 74/180/129 70/181/130
s 13
f 30/189/131 16/190/132 32/191/133
s 5
f 31/109/90 63/110/134 2/104/84 1/103/83
f 75/111/135 22/101/81 2/104/84 12/112/136
f 35/10/137 75/20/135 12/12/136 4/4/138
f 63/110/134 61/118/139 12/112/136 2/104/84
f 61/11/139 25/1/140 4/4/138 12/12/136
s 10
f 66/165/120 44/167/122 28/170/141
s 14
f 14/193/142 26/194/143 62/195/144
f 14/193/142 62/195/144 64/196/145
s off
f 14/197/146 64/198/147 32/199/148 16/200/149
s 13
f 40/192/150 16/190/132 30/189/131
s 10
f 60/173/151 72/168/152 48/174/153
f 56/169/154 72/168/152 60/173/151
f 66/165/120 72/168/152 56/169/154 50/166/121
s 16
f 18/201/155 42/202/156 38/203/157
f 18/201/155 38/203/157 24/204/158
s off
f 18/205/159 24/206/160 21/207/161 20/208/162
s 11
f 20/175/125 76/177/127 36/178/163
s 12
f 68/183/164 34/188/165 46/185/166
f 68/183/164 46/185/166 54/184/167
f 68/183/164 54/184/167 58/179/128 70/181/130
f 70/181/130 74/180/129 52/182/168
s off
f 28/6/169 79/14/170 80/21/171 66/22/172
s 18
f 79/14/173 78/23/174 81/29/175 80/21/176
f 78/209/174 77/210/177 82/211/178 81/212/179
s 20
f 91/217/180 90/218/181 93/219/182 92/220/183
f 90/57/181 89/49/184 94/56/185 93/63/186
s off
f 89/49/187 48/40/188 72/55/189 94/56/190
f 36/141/191 103/142/192 104/143/193 20/144/194
s 22
f 103/142/195 102/145/196 105/146/197 104/143/198
f 102/225/196 101/226/199 106/227/200 105/228/197
s off
f 52/53/201 115/60/202 116/64/203 70/65/204
s 23
f 115/60/205 114/66/206 117/68/207 116/64/208
f 114/233/206 113/234/209 118/235/210 117/236/211
s 18
f 82/211/178 77/210/177 83/214/212 86/215/213
s 20
f 91/217/180 92/220/183 95/224/214 98/221/215
s 22
f 106/227/200 101/226/199 107/230/216 110/231/217
s 23
f 118/235/210 113/234/209 119/238/218 122/239/219
s off
f 79/14/220 28/6/221 26/5/222 85/15/223
s 18
f 77/210/177 78/209/174 84/213/224 83/214/212
f 78/23/174 79/14/173 85/15/225 84/24/224
s off
f 85/147/226 26/148/227 14/149/228 88/150/229
s 18
f 83/214/212 84/213/224 87/216/230 86/215/213
f 84/151/224 85/147/231 88/150/232 87/152/230
s 25
f 66/69/233 80/70/234 88/71/235 14/72/236
f 80/70/234 81/73/237 87/74/238 88/71/235
s 18
f 81/212/179 82/211/178 86/215/213 87/216/230
s 26
f 94/77/239 72/78/240 16/79/241 97/80/242
s 20
f 92/220/183 93/219/182 96/223/243 95/224/214
s 26
f 93/83/244 94/77/239 97/80/242 96/84/245
s off
f 97/153/246 16/154/247 40/155/248 100/156/249
s 20
f 95/224/214 96/223/243 99/222/250 98/221/215
f 96/157/243 97/153/251 100/156/252 99/158/250
s off
f 48/40/253 89/49/254 100/50/255 40/39/256
s 20
f 89/49/184 90/57/181 99/58/250 100/50/257
f 90/218/181 91/217/180 98/221/215 99/222/250
s off
f 103/26/258 36/19/259 34/18/260 109/27/261
s 22
f 101/226/199 102/225/196 108/229/262 107/230/216
f 102/32/196 103/26/263 109/27/264 108/33/262
s off
f 109/27/265 34/18/266 68/30/267 112/31/268
s 22
f 107/230/216 108/229/262 111/232/269 110/231/217
f 108/33/262 109/27/264 112/31/270 111/34/271
s 27
f 20/85/272 104/86/273 112/87/274 68/88/275
f 104/86/273 105/89/276 111/90/277 112/87/274
s 22
f 105/228/197 106/227/200 110/231/217 111/232/269
s off
f 115/60/278 52/53/279 42/52/280 121/61/281
s 23
f 113/234/209 114/233/206 120/237/282 119/238/218
f 114/66/206 115/60/205 121/61/283 120/67/282
s off
f 121/159/284 42/160/285 18/161/286 124/162/287
s 23
f 119/238/218 120/237/282 123/240/288 122/239/219
f 120/163/282 121/159/289 124/162/290 123/164/288
s 28
f 70/93/291 116/94/292 124/95/293 18/96/294
f 116/94/292 117/97/295 123/98/296 124/95/293
s 23
f 117/236/211 118/235/210 122/239/219 123/240/288
