# This file uses centimeters as units for non-parametric coordinates.

mtllib button_pad.mtl
g default
v -0.236917 -0.398039 0.048919
v 0.236917 -0.398039 0.048919
v -0.236917 0.398039 0.048919
v 0.236917 0.398039 0.048919
v -0.236917 0.398039 0.000000
v 0.236917 0.398039 0.000000
v -0.236917 -0.398039 0.000000
v 0.236917 -0.398039 0.000000
v -0.197207 -0.331322 0.091573
v 0.197207 -0.331322 0.091573
v 0.197207 0.331322 0.091573
v -0.197207 0.331322 0.091573
v -0.182130 -0.305992 0.084748
v 0.182130 -0.305992 0.084748
v 0.182130 0.305992 0.084748
v -0.182130 0.305992 0.084748
v -0.174474 -0.293130 0.062558
v 0.174474 -0.293130 0.062558
v 0.174474 0.293130 0.062558
v -0.174474 0.293130 0.062558
vt 0.052327 0.001879
vt 0.110054 0.001879
vt 0.110054 0.941298
vt 0.052327 0.941298
vt 0.001992 0.862568
vt 0.001992 0.080608
vt 0.118068 0.001879
vt 0.175795 0.001879
vt 0.175795 0.941298
vt 0.118068 0.941298
vt 0.226130 0.080608
vt 0.226130 0.862568
vt 0.733474 0.001879
vt 0.733474 0.724058
vt 0.707288 0.708879
vt 0.707288 0.017058
vt 0.740677 0.724058
vt 0.740677 0.001879
vt 0.766863 0.017058
vt 0.766863 0.708879
vt 0.824401 0.561032
vt 0.824401 0.001879
vt 0.882128 0.001879
vt 0.882128 0.561032
vt 0.774066 0.514172
vt 0.774066 0.048740
vt 0.889946 0.561032
vt 0.889946 0.001879
vt 0.947673 0.001879
vt 0.947673 0.561032
vt 0.998008 0.048740
vt 0.998008 0.514172
vt 0.260774 0.046948
vt 0.672554 0.046948
vt 0.672554 0.738769
vt 0.260774 0.738769
vt 0.251739 0.031769
vt 0.681589 0.031769
vt 0.681589 0.753948
vt 0.251739 0.753948
vt 0.233948 0.001879
vt 0.699380 0.001879
vt 0.699380 0.783839
vt 0.233948 0.783839
vn 0.000000 0.000000 1.000000
vn 0.000000 0.000000 1.000000
vn 0.000000 0.000000 1.000000
vn 0.000000 0.000000 1.000000
vn 0.000000 1.000000 0.000000
vn 0.000000 1.000000 0.000000
vn 0.000000 1.000000 0.000000
vn 0.000000 1.000000 0.000000
vn 0.000000 -1.000000 0.000000
vn 0.000000 -1.000000 0.000000
vn 0.000000 -1.000000 0.000000
vn 0.000000 -1.000000 0.000000
vn 1.000000 0.000000 0.000000
vn 1.000000 0.000000 0.000000
vn 1.000000 0.000000 0.000000
vn 1.000000 0.000000 0.000000
vn -1.000000 0.000000 0.000000
vn -1.000000 0.000000 0.000000
vn -1.000000 0.000000 0.000000
vn -1.000000 0.000000 0.000000
vn 0.000000 -0.538663 0.842522
vn 0.000000 -0.538663 0.842522
vn 0.000000 -0.538663 0.842522
vn 0.000000 -0.538663 0.842522
vn 0.731918 0.000000 0.681393
vn 0.731918 0.000000 0.681393
vn 0.731917 0.000000 0.681393
vn 0.731917 0.000000 0.681393
vn 0.000000 0.538663 0.842522
vn 0.000000 0.538663 0.842522
vn 0.000000 0.538663 0.842522
vn 0.000000 0.538663 0.842522
vn -0.731918 0.000000 0.681393
vn -0.731918 0.000000 0.681393
vn -0.731917 0.000000 0.681393
vn -0.731917 0.000000 0.681393
vn 0.000000 0.260193 0.965557
vn 0.000000 0.260193 0.965557
vn 0.000000 0.260193 0.965557
vn 0.000000 0.260193 0.965557
vn -0.412437 0.000000 0.910986
vn -0.412437 0.000000 0.910986
vn -0.412437 0.000000 0.910986
vn -0.412437 0.000000 0.910986
vn 0.000000 -0.260193 0.965557
vn 0.000000 -0.260193 0.965557
vn 0.000000 -0.260193 0.965557
vn 0.000000 -0.260193 0.965557
vn 0.412437 0.000000 0.910986
vn 0.412437 0.000000 0.910986
vn 0.412437 0.000000 0.910986
vn 0.412437 0.000000 0.910986
vn 0.000000 0.865158 0.501499
vn 0.000000 0.865158 0.501499
vn 0.000000 0.865158 0.501499
vn 0.000000 0.865158 0.501499
vn -0.945316 0.000000 0.326155
vn -0.945316 0.000000 0.326155
vn -0.945316 0.000000 0.326155
vn -0.945316 0.000000 0.326155
vn 0.000000 -0.865158 0.501499
vn 0.000000 -0.865158 0.501499
vn 0.000000 -0.865158 0.501499
vn 0.000000 -0.865158 0.501499
vn 0.945316 0.000000 0.326155
vn 0.945316 0.000000 0.326155
vn 0.945316 0.000000 0.326155
vn 0.945316 0.000000 0.326155
s off
g button_low
usemtl initialShadingGroup
f 17/33/1 18/34/2 19/35/3 20/36/4
f 3/21/5 4/22/6 6/23/7 5/24/8
f 7/27/9 8/28/10 2/29/11 1/30/12
f 2/1/13 8/2/14 6/3/15 4/4/16
f 7/7/17 1/8/18 3/9/19 5/10/20
f 1/30/21 2/29/22 10/31/23 9/32/24
f 2/1/25 4/4/26 11/5/27 10/6/28
f 4/22/29 3/21/30 12/25/31 11/26/32
f 3/9/33 1/8/34 9/11/35 12/12/36
f 9/41/37 10/42/38 14/38/39 13/37/40
f 10/42/41 11/43/42 15/39/43 14/38/44
f 11/43/45 12/44/46 16/40/47 15/39/48
f 12/44/49 9/41/50 13/37/51 16/40/52
f 13/37/53 14/38/54 18/34/55 17/33/56
f 14/13/57 15/14/58 19/15/59 18/16/60
f 15/39/61 16/40/62 20/36/63 19/35/64
f 16/17/65 13/18/66 17/19/67 20/20/68
