# This file uses centimeters as units for non-parametric coordinates.

mtllib dial_handle.mtl
g default
v -0.019346 -0.038854 -0.060820
v -0.037173 -0.038854 -0.051737
v -0.051320 -0.038854 -0.037589
v -0.060404 -0.038854 -0.019762
v -0.063534 -0.038854 -0.000000
v -0.060404 -0.038854 0.019761
v -0.051320 -0.038854 0.037589
v -0.037173 -0.038854 0.051736
v -0.019346 -0.038854 0.060820
v 0.000416 -0.038854 0.063950
v 0.020178 -0.038854 0.060820
v 0.038005 -0.038854 0.051736
v 0.052153 -0.038854 0.037589
v 0.061236 -0.038854 0.019761
v 0.064366 -0.038854 -0.000000
v 0.061236 -0.038854 -0.019762
v 0.052153 -0.038854 -0.037589
v 0.038005 -0.038854 -0.051737
v 0.020178 -0.038854 -0.060820
v 0.000416 -0.038854 -0.063950
v -0.019346 0.047461 -0.060820
v -0.037173 0.047461 -0.051737
v -0.051320 0.047461 -0.037589
v -0.060404 0.047461 -0.019762
v -0.063534 0.047461 -0.000000
v -0.060404 0.047461 0.019761
v -0.051320 0.047461 0.037589
v -0.037173 0.047461 0.051736
v -0.019346 0.047461 0.060820
v 0.000416 0.047461 0.063950
v 0.020178 0.047461 0.060820
v 0.038005 0.047461 0.051736
v 0.052153 0.047461 0.037589
v 0.061236 0.047461 0.019761
v 0.064366 0.047461 -0.000000
v 0.061236 0.047461 -0.019762
v 0.052153 0.047461 -0.037589
v 0.038005 0.047461 -0.051737
v 0.020178 0.047461 -0.060820
v 0.000416 0.047461 -0.063950
v -0.017311 -0.038854 -0.054559
v -0.033303 -0.038854 -0.046411
v -0.045994 -0.038854 -0.033719
v -0.054143 -0.038854 -0.017727
v -0.056950 -0.038854 -0.000000
v -0.054143 -0.038854 0.017727
v -0.045994 -0.038854 0.033719
v -0.033303 -0.038854 0.046410
v -0.017311 -0.038854 0.054559
v 0.000416 -0.038854 0.057366
v 0.018143 -0.038854 0.054559
v 0.034135 -0.038854 0.046410
v 0.046827 -0.038854 0.033719
v 0.054975 -0.038854 0.017727
v 0.057783 -0.038854 -0.000000
v 0.054975 -0.038854 -0.017727
v 0.046827 -0.038854 -0.033719
v 0.034135 -0.038854 -0.046411
v 0.018143 -0.038854 -0.054559
v 0.000416 -0.038854 -0.057367
v -0.017311 -0.033274 -0.054559
v -0.033303 -0.033274 -0.046411
v 0.000416 -0.033274 -0.000000
v -0.045994 -0.033274 -0.033719
v -0.054143 -0.033274 -0.017727
v -0.056950 -0.033274 -0.000000
v -0.054143 -0.033274 0.017727
v -0.045994 -0.033274 0.033719
v -0.033303 -0.033274 0.046410
v -0.017311 -0.033274 0.054559
v 0.000416 -0.033274 0.057366
v 0.018143 -0.033274 0.054559
v 0.034135 -0.033274 0.046410
v 0.046827 -0.033274 0.033719
v 0.054975 -0.033274 0.017727
v 0.057783 -0.033274 -0.000000
v 0.054975 -0.033274 -0.017727
v 0.046827 -0.033274 -0.033719
v 0.034135 -0.033274 -0.046411
v 0.018143 -0.033274 -0.054559
v 0.000416 -0.033274 -0.057367
v 0.020178 -0.047461 -0.060820
v 0.000416 -0.047461 -0.063950
v 0.018143 -0.047461 -0.054559
v 0.000416 -0.047461 -0.057367
v -0.019345 -0.047461 -0.060820
v -0.017311 -0.047461 -0.054559
vt 0.652858 0.488299
vt 0.652858 0.429661
vt 0.936771 0.429661
vt 0.936771 0.488299
vt 0.652858 0.383125
vt 0.936771 0.383125
vt 0.652858 0.553300
vt 0.936771 0.553300
vt 0.624546 0.553300
vt 0.624546 0.488299
vt 0.652858 0.618302
vt 0.936771 0.618302
vt 0.624546 0.618302
vt 0.652858 0.676940
vt 0.936771 0.676940
vt 0.652858 0.723476
vt 0.936771 0.723476
vt 0.334874 0.720250
vt 0.334874 0.661611
vt 0.618788 0.661611
vt 0.618788 0.720250
vt 0.334874 0.596610
vt 0.618788 0.596610
vt 0.334874 0.766785
vt 0.618788 0.766785
vt 0.334874 0.531609
vt 0.618788 0.531609
vt 0.334874 0.472970
vt 0.618788 0.472970
vt 0.334874 0.426435
vt 0.618788 0.426435
vt 0.310762 0.690002
vt 0.310762 0.637400
vt 0.329115 0.637400
vt 0.329115 0.690002
vt 0.310762 0.579091
vt 0.329115 0.579091
vt 0.310762 0.731747
vt 0.329115 0.731747
vt 0.282451 0.637400
vt 0.282451 0.579091
vt 0.310762 0.520781
vt 0.329115 0.520781
vt 0.282451 0.520781
vt 0.310762 0.468179
vt 0.329115 0.468179
vt 0.310762 0.426435
vt 0.329115 0.426435
vt 0.258339 0.520781
vt 0.258339 0.468180
vt 0.276692 0.468180
vt 0.276692 0.520781
vt 0.258339 0.426435
vt 0.276692 0.426435
vt 0.258339 0.579091
vt 0.276692 0.579091
vt 0.258339 0.637400
vt 0.276692 0.637400
vt 0.258339 0.690002
vt 0.276692 0.690002
vt 0.258339 0.731747
vt 0.276692 0.731747
vt 0.760498 0.079774
vt 0.787300 0.132376
vt 0.607842 0.190685
vt 0.796535 0.190685
vt 0.718753 0.038029
vt 0.787300 0.248995
vt 0.666151 0.011227
vt 0.760498 0.301597
vt 0.607842 0.001992
vt 0.718753 0.343342
vt 0.549532 0.011227
vt 0.666151 0.370144
vt 0.496931 0.038029
vt 0.607842 0.379379
vt 0.455186 0.079774
vt 0.549532 0.370144
vt 0.428384 0.132376
vt 0.496931 0.343342
vt 0.419148 0.190685
vt 0.455186 0.301597
vt 0.428384 0.248995
vt 0.382393 0.088701
vt 0.412271 0.147339
vt 0.391676 0.154031
vt 0.364874 0.101429
vt 0.335857 0.042165
vt 0.323129 0.059684
vt 0.277219 0.012287
vt 0.270527 0.032882
vt 0.212218 0.001992
vt 0.212218 0.023647
vt 0.147217 0.012287
vt 0.153908 0.032882
vt 0.088578 0.042165
vt 0.101307 0.059684
vt 0.042043 0.088701
vt 0.059562 0.101429
vt 0.012165 0.147339
vt 0.032760 0.154031
vt 0.001870 0.212340
vt 0.023525 0.212340
vt 0.012165 0.277341
vt 0.032760 0.270650
vt 0.042043 0.335980
vt 0.059562 0.323251
vt 0.088578 0.382515
vt 0.101307 0.364996
vt 0.147217 0.412393
vt 0.153908 0.391798
vt 0.212218 0.422688
vt 0.212218 0.401033
vt 0.277219 0.412393
vt 0.270527 0.391798
vt 0.335857 0.382515
vt 0.323129 0.364996
vt 0.382393 0.335980
vt 0.364874 0.323251
vt 0.412271 0.277341
vt 0.391676 0.270650
vt 0.338447 0.835533
vt 0.328152 0.900534
vt 0.307557 0.893842
vt 0.316792 0.835533
vt 0.328152 0.770532
vt 0.307557 0.777223
vt 0.252580 0.710348
vt 0.193942 0.710348
vt 0.193942 0.426435
vt 0.252580 0.426435
vt 0.128941 0.710348
vt 0.128941 0.426435
vt 0.063940 0.710348
vt 0.063940 0.426435
vt 0.005301 0.710348
vt 0.005301 0.426435
vt 0.001870 0.714095
vt 0.060508 0.714095
vt 0.060508 0.998008
vt 0.001870 0.998008
vt 0.125509 0.714095
vt 0.125509 0.998008
vt 0.190510 0.714095
vt 0.190510 0.998008
vt 0.249149 0.714095
vt 0.249149 0.998008
vt 0.256335 0.788095
vt 0.256335 0.735493
vt 0.274688 0.735493
vt 0.274688 0.788095
vt 0.256335 0.846405
vt 0.274688 0.846405
vt 0.256335 0.904714
vt 0.274688 0.904714
vt 0.256335 0.957316
vt 0.274688 0.957316
vt 0.300299 0.904714
vt 0.300299 0.957316
vt 0.281946 0.957316
vt 0.281946 0.904714
vt 0.300299 0.846404
vt 0.281946 0.846404
vt 0.300299 0.788095
vt 0.281946 0.788095
vt 0.300299 0.735493
vt 0.281946 0.735493
vt 0.366569 0.798843
vt 0.345974 0.798843
vt 0.345974 0.770532
vt 0.366569 0.770532
vt 0.373414 0.770532
vt 0.394009 0.770532
vt 0.394009 0.798843
vt 0.373414 0.798843
vn -0.309016 -0.000000 -0.951057
vn -0.587786 -0.000000 -0.809017
vn -0.587786 -0.000000 -0.809017
vn -0.309016 -0.000000 -0.951057
vn -0.809017 -0.000000 -0.587786
vn -0.809017 -0.000000 -0.587786
vn -0.951056 0.000000 -0.309018
vn -0.951056 0.000000 -0.309018
vn -1.000000 0.000000 0.000000
vn -1.000000 0.000000 0.000000
vn -0.951056 0.000000 0.309017
vn -0.951056 0.000000 0.309018
vn -0.809017 -0.000000 0.587786
vn -0.809017 -0.000000 0.587786
vn -0.587785 -0.000000 0.809017
vn -0.587785 -0.000000 0.809017
vn -0.309017 -0.000000 0.951057
vn -0.309017 -0.000000 0.951057
vn 0.000000 -0.000000 1.000000
vn 0.000000 -0.000000 1.000000
vn 0.309017 -0.000000 0.951056
vn 0.309017 -0.000000 0.951056
vn 0.587785 -0.000000 0.809017
vn 0.587785 -0.000000 0.809017
vn 0.809018 -0.000000 0.587784
vn 0.809018 -0.000000 0.587784
vn 0.951057 0.000000 0.309015
vn 0.951057 0.000000 0.309015
vn 1.000000 0.000000 0.000000
vn 1.000000 0.000000 0.000000
vn 0.951057 0.000000 -0.309015
vn 0.951057 0.000000 -0.309016
vn 0.809018 0.000000 -0.587784
vn 0.809018 0.000000 -0.587784
vn 0.587785 -0.000000 -0.809017
vn 0.587785 -0.000000 -0.809017
vn 0.309016 -0.000000 -0.951057
vn 0.309016 -0.000000 -0.951057
vn 0.000001 -0.000000 -1.000000
vn 0.000001 -0.000000 -1.000000
vn -0.000000 -1.000000 -0.000000
vn -0.000001 -1.000000 0.000000
vn -0.000000 -1.000000 0.000000
vn 0.000000 -1.000000 -0.000000
vn 0.000000 -1.000000 -0.000000
vn 0.000000 -1.000000 -0.000000
vn 0.000000 -1.000000 -0.000000
vn 0.000000 -1.000000 0.000000
vn 0.000000 -1.000000 0.000000
vn 0.000000 -1.000000 0.000000
vn -0.000000 -1.000000 0.000000
vn -0.000001 -1.000000 0.000000
vn -0.000000 -1.000000 -0.000000
vn -0.000000 -1.000000 -0.000000
vn 0.000000 -1.000000 -0.000001
vn 0.000000 -1.000000 -0.000000
vn 0.000000 -1.000000 0.000001
vn -0.000000 -1.000000 0.000000
vn -0.000000 -1.000000 0.000000
vn -0.000000 -1.000000 -0.000000
vn -0.000000 -1.000000 0.000000
vn 0.000001 -1.000000 0.000001
vn 0.000001 -1.000000 0.000001
vn 0.000001 -1.000000 0.000001
vn 0.000001 -1.000000 0.000001
vn -0.000000 -1.000000 0.000000
vn -0.000000 -1.000000 0.000000
vn -0.000000 -1.000000 0.000000
vn -0.000000 -1.000000 0.000000
vn -0.000001 -1.000000 -0.000001
vn -0.000001 -1.000000 -0.000001
vn -0.000001 -1.000000 -0.000001
vn -0.000001 -1.000000 -0.000001
vn 0.000000 -1.000000 0.000000
vn 0.000000 -1.000000 0.000000
vn 0.000000 -1.000000 0.000000
vn 0.000000 -1.000000 0.000000
vn -0.000000 -1.000000 -0.000000
vn -0.000000 -1.000000 -0.000000
vn -0.000000 -1.000000 -0.000000
vn -0.000000 -1.000000 -0.000000
vn 0.000001 -1.000000 -0.000000
vn 0.000001 -1.000000 -0.000000
vn 0.000001 -1.000000 -0.000000
vn 0.000001 -1.000000 -0.000000
vn 0.000001 -1.000000 -0.000001
vn 0.000001 -1.000000 -0.000001
vn 0.000001 -1.000000 -0.000001
vn 0.000001 -1.000000 -0.000001
vn 0.000000 -1.000000 -0.000002
vn 0.000000 -1.000000 -0.000002
vn 0.000000 -1.000000 -0.000002
vn 0.000000 -1.000000 -0.000002
vn 0.000001 -1.000000 -0.000004
vn 0.000001 -1.000000 -0.000004
vn 0.000001 -1.000000 -0.000004
vn 0.000001 -1.000000 -0.000004
vn 0.000000 -1.000000 -0.000002
vn 0.000000 -1.000000 -0.000002
vn 0.000000 -1.000000 -0.000002
vn 0.000000 -1.000000 -0.000002
vn -0.000001 -1.000000 -0.000000
vn -0.000001 -1.000000 -0.000000
vn -0.000001 -1.000000 -0.000000
vn -0.000001 -1.000000 -0.000000
vn -0.000001 -1.000000 -0.000001
vn -0.000001 -1.000000 -0.000001
vn -0.000001 -1.000000 -0.000001
vn -0.000001 -1.000000 -0.000001
vn 0.000001 -1.000000 0.000001
vn 0.000001 -1.000000 0.000001
vn 0.000001 -1.000000 0.000001
vn 0.000001 -1.000000 0.000001
vn -0.000001 -1.000000 0.000000
vn -0.000001 -1.000000 0.000000
vn -0.000001 -1.000000 0.000000
vn -0.000001 -1.000000 0.000000
vn -0.000001 -1.000000 -0.000000
vn -0.000001 -1.000000 -0.000000
vn -0.000001 -1.000000 -0.000000
vn -0.000001 -1.000000 -0.000000
vn 0.000000 -1.000000 -0.000000
vn 0.000000 -1.000000 -0.000000
vn 0.000000 -1.000000 -0.000000
vn 0.000000 -1.000000 -0.000000
vn 0.000001 -1.000000 -0.000001
vn 0.000001 -1.000000 -0.000001
vn 0.000001 -1.000000 -0.000001
vn 0.000001 -1.000000 -0.000001
vn 0.000001 -1.000000 -0.000002
vn 0.000001 -1.000000 -0.000002
vn 0.000001 -1.000000 -0.000002
vn 0.000001 -1.000000 -0.000002
vn 0.000000 -1.000000 -0.000002
vn 0.000000 -1.000000 -0.000002
vn 0.000000 -1.000000 -0.000002
vn 0.000000 -1.000000 -0.000002
vn 0.000000 -1.000000 -0.000001
vn 0.000000 -1.000000 -0.000001
vn 0.000000 -1.000000 -0.000001
vn 0.000000 -1.000000 -0.000001
vn 0.453991 0.000001 0.891006
vn 0.453991 0.000001 0.891007
vn 0.453991 0.000001 0.891007
vn 0.453991 0.000001 0.891007
vn 0.707106 0.000001 0.707107
vn 0.707106 0.000001 0.707107
vn 0.707106 0.000001 0.707108
vn 0.707106 0.000001 0.707107
vn 0.891007 0.000001 0.453989
vn 0.891007 0.000001 0.453989
vn 0.891007 0.000001 0.453989
vn 0.891007 0.000001 0.453989
vn 0.987688 0.000001 0.156435
vn 0.987688 0.000001 0.156435
vn 0.987688 0.000001 0.156435
vn 0.987688 0.000001 0.156435
vn 0.987688 -0.000000 -0.156435
vn 0.987688 -0.000000 -0.156435
vn 0.987688 -0.000000 -0.156435
vn 0.987688 -0.000000 -0.156435
vn 0.891007 -0.000001 -0.453990
vn 0.891007 -0.000001 -0.453990
vn 0.891007 -0.000001 -0.453990
vn 0.891007 -0.000001 -0.453990
vn 0.707106 -0.000001 -0.707107
vn 0.707106 -0.000001 -0.707107
vn 0.707106 -0.000001 -0.707107
vn 0.707106 -0.000001 -0.707107
vn 0.453990 0.000002 -0.891007
vn 0.453990 0.000002 -0.891007
vn 0.453990 0.000002 -0.891007
vn 0.453990 0.000002 -0.891007
vn 0.156435 0.000001 -0.987688
vn 0.156435 0.000001 -0.987688
vn 0.156435 0.000001 -0.987688
vn 0.156435 0.000001 -0.987688
vn -0.156434 -0.000002 -0.987688
vn -0.156434 -0.000002 -0.987688
vn -0.156434 -0.000002 -0.987688
vn -0.156434 -0.000002 -0.987688
vn -0.453990 -0.000001 -0.891007
vn -0.453990 -0.000001 -0.891007
vn -0.453990 -0.000001 -0.891007
vn -0.453990 -0.000001 -0.891007
vn -0.707108 -0.000001 -0.707106
vn -0.707107 -0.000001 -0.707106
vn -0.707108 -0.000001 -0.707106
vn -0.707107 -0.000001 -0.707106
vn -0.891006 0.000000 -0.453992
vn -0.891006 0.000000 -0.453992
vn -0.891006 0.000000 -0.453992
vn -0.891006 0.000000 -0.453992
vn -0.987689 -0.000000 -0.156430
vn -0.987689 -0.000000 -0.156429
vn -0.987689 -0.000000 -0.156430
vn -0.987689 -0.000000 -0.156430
vn -0.987689 0.000000 0.156431
vn -0.987689 0.000000 0.156431
vn -0.987689 0.000000 0.156431
vn -0.987689 0.000000 0.156431
vn -0.891006 -0.000000 0.453992
vn -0.891006 -0.000000 0.453992
vn -0.891006 -0.000000 0.453992
vn -0.891006 -0.000000 0.453992
vn -0.707109 -0.000002 0.707105
vn -0.707108 -0.000002 0.707105
vn -0.707109 -0.000002 0.707105
vn -0.707108 -0.000002 0.707105
vn -0.453989 -0.000003 0.891007
vn -0.453989 -0.000003 0.891007
vn -0.453989 -0.000003 0.891008
vn -0.453989 -0.000003 0.891007
vn -0.156434 -0.000000 0.987688
vn -0.156434 -0.000000 0.987688
vn -0.156434 -0.000000 0.987688
vn -0.156434 -0.000000 0.987688
vn 0.156431 0.000001 0.987689
vn 0.156431 0.000001 0.987689
vn 0.156431 0.000001 0.987689
vn 0.156431 0.000001 0.987689
vn 0.156434 0.000001 -0.987688
vn 0.156434 0.000001 -0.987688
vn 0.156434 0.000001 -0.987688
vn 0.156434 0.000001 -0.987688
vn 0.951056 0.000000 0.309019
vn 0.951056 0.000000 0.309019
vn 0.951056 0.000000 0.309019
vn 0.951056 0.000000 0.309019
vn -0.156434 -0.000000 0.987688
vn -0.156434 -0.000000 0.987688
vn -0.156434 -0.000000 0.987688
vn -0.156434 -0.000000 0.987688
vn -0.156433 -0.000000 -0.987689
vn -0.156433 -0.000000 -0.987689
vn -0.156433 -0.000000 -0.987689
vn -0.156433 -0.000000 -0.987689
vn 0.156431 -0.000000 0.987689
vn 0.156431 -0.000000 0.987689
vn 0.156431 -0.000000 0.987689
vn 0.156431 -0.000000 0.987689
vn -0.951055 -0.000000 0.309020
vn -0.951055 -0.000000 0.309020
vn -0.951055 -0.000000 0.309020
vn -0.951055 -0.000000 0.309020
s 1
g dial
usemtl initialShadingGroup
f 1/1/1 2/2/2 22/3/3 21/4/4
f 2/2/2 3/5/5 23/6/6 22/3/3
f 3/128/5 4/129/7 24/130/8 23/131/6
f 4/129/7 5/132/9 25/133/10 24/130/8
f 5/132/9 6/134/11 26/135/12 25/133/10
f 6/134/11 7/136/13 27/137/14 26/135/12
f 7/24/13 8/18/15 28/21/16 27/25/14
f 8/18/15 9/19/17 29/20/18 28/21/16
f 9/19/17 10/22/19 30/23/20 29/20/18
f 10/22/19 11/26/21 31/27/22 30/23/20
f 11/26/21 12/28/23 32/29/24 31/27/22
f 12/28/23 13/30/25 33/31/26 32/29/24
f 13/138/25 14/139/27 34/140/28 33/141/26
f 14/139/27 15/142/29 35/143/30 34/140/28
f 15/142/29 16/144/31 36/145/32 35/143/30
f 16/144/31 17/146/33 37/147/34 36/145/32
f 17/16/33 18/14/35 38/15/36 37/17/34
f 18/14/35 19/11/37 39/12/38 38/15/36
f 19/11/37 20/7/39 40/8/40 39/12/38
f 20/7/39 1/1/1 21/4/4 40/8/40
s 2
f 62/63/41 61/64/42 63/65/43
f 64/67/44 62/63/41 63/65/43
f 65/69/45 64/67/44 63/65/43
f 66/71/46 65/69/45 63/65/43
f 67/73/47 66/71/46 63/65/43
f 68/75/48 67/73/47 63/65/43
f 69/77/49 68/75/48 63/65/43
f 70/79/50 69/77/49 63/65/43
f 71/81/51 70/79/50 63/65/43
f 72/83/52 71/81/51 63/65/43
f 73/82/53 72/83/52 63/65/43
f 74/80/54 73/82/53 63/65/43
f 75/78/55 74/80/54 63/65/43
f 76/76/56 75/78/55 63/65/43
f 77/74/57 76/76/56 63/65/43
f 78/72/58 77/74/57 63/65/43
f 79/70/59 78/72/58 63/65/43
f 80/68/60 79/70/59 63/65/43
f 81/66/61 80/68/60 63/65/43
f 61/64/42 81/66/61 63/65/43
s off
f 2/84/62 1/85/63 41/86/64 42/87/65
f 3/88/66 2/84/67 42/87/68 43/89/69
f 4/90/70 3/88/71 43/89/72 44/91/73
f 5/92/74 4/90/75 44/91/76 45/93/77
f 6/94/78 5/92/79 45/93/80 46/95/81
f 7/96/82 6/94/83 46/95/84 47/97/85
f 8/98/86 7/96/87 47/97/88 48/99/89
f 9/100/90 8/98/91 48/99/92 49/101/93
f 10/102/94 9/100/95 49/101/96 50/103/97
f 11/104/98 10/102/99 50/103/100 51/105/101
f 12/106/102 11/104/103 51/105/104 52/107/105
f 13/108/106 12/106/107 52/107/108 53/109/109
f 14/110/110 13/108/111 53/109/112 54/111/113
f 15/112/114 14/110/115 54/111/116 55/113/117
f 16/114/118 15/112/119 55/113/120 56/115/121
f 17/116/122 16/114/123 56/115/124 57/117/125
f 18/118/126 17/116/127 57/117/128 58/119/129
f 19/120/130 18/118/131 58/119/132 59/121/133
f 83/122/134 82/123/135 84/124/136 85/125/137
f 86/126/138 83/122/139 85/125/140 87/127/141
f 42/32/142 41/33/143 61/34/144 62/35/145
f 43/38/146 42/32/147 62/35/148 64/39/149
f 44/148/150 43/149/151 64/150/152 65/151/153
f 45/152/154 44/148/155 65/151/156 66/153/157
f 46/154/158 45/152/159 66/153/160 67/155/161
f 47/156/162 46/154/163 67/155/164 68/157/165
f 48/50/166 47/53/167 68/54/168 69/51/169
f 49/49/170 48/50/171 69/51/172 70/52/173
f 50/55/174 49/49/175 70/52/176 71/56/177
f 51/57/178 50/55/179 71/56/180 72/58/181
f 52/59/182 51/57/183 72/58/184 73/60/185
f 53/61/186 52/59/187 73/60/188 74/62/189
f 54/158/190 53/159/191 74/160/192 75/161/193
f 55/162/194 54/158/195 75/161/196 76/163/197
f 56/164/198 55/162/199 76/163/200 77/165/201
f 57/166/202 56/164/203 77/165/204 78/167/205
f 58/45/206 57/47/207 78/48/208 79/46/209
f 59/42/210 58/45/211 79/46/212 80/43/213
f 60/36/214 59/42/215 80/43/216 81/37/217
f 41/33/218 60/36/219 81/37/220 61/34/221
f 20/7/222 19/11/223 82/13/224 83/9/225
f 19/168/226 59/169/227 84/170/228 82/171/229
f 59/42/230 60/36/231 85/41/232 84/44/233
f 1/1/234 20/7/235 83/9/236 86/10/237
f 60/36/238 41/33/239 87/40/240 85/41/241
f 41/172/242 1/173/243 86/174/244 87/175/245
