# This file uses centimeters as units for non-parametric coordinates.

mtllib dial_base.mtl
g default
v -0.019264 -0.087091 0.097758
v 0.008273 -0.087091 0.097758
v -0.019264 0.108424 0.097758
v 0.008273 0.108424 0.097758
v -0.019264 0.108424 -0.097758
v 0.008273 0.108424 -0.097758
v -0.019264 -0.087091 -0.097758
v 0.008273 -0.087091 -0.097758
v 0.019264 -0.081562 -0.092228
v 0.019264 -0.081562 0.092228
v 0.019264 0.102895 -0.092228
v 0.019264 0.102895 0.092228
v 0.014264 -0.071194 -0.081860
v 0.014264 -0.071194 0.081860
v 0.014264 0.092527 -0.081860
v 0.014264 0.092527 0.081860
v -0.004477 -0.071194 -0.081860
v -0.004477 -0.071194 0.081860
v -0.004477 0.092527 -0.081860
v -0.004477 0.092527 0.081860
vt 0.572549 0.485213
vt 0.998008 0.485213
vt 0.998008 0.910672
vt 0.572549 0.910672
vt 0.430957 0.001875
vt 0.910302 0.001875
vt 0.883359 0.028818
vt 0.457900 0.028818
vt 0.910302 0.481221
vt 0.883359 0.454278
vt 0.430957 0.481221
vt 0.457900 0.454278
vt 0.216572 0.001875
vt 0.288134 0.001875
vt 0.288134 0.509960
vt 0.216572 0.509960
vt 0.316696 0.016245
vt 0.316696 0.495590
vt 0.323764 0.001875
vt 0.395326 0.001875
vt 0.395326 0.509960
vt 0.323764 0.509960
vt 0.423889 0.016245
vt 0.423889 0.495590
vt 0.456741 0.513951
vt 0.456741 0.939410
vt 0.408040 0.939410
vt 0.408040 0.513951
vt 0.401905 0.513951
vt 0.401905 0.939410
vt 0.353204 0.939410
vt 0.353204 0.513951
vt 0.001992 0.001875
vt 0.073554 0.001875
vt 0.073554 0.509961
vt 0.001992 0.509961
vt 0.102117 0.016245
vt 0.102117 0.495591
vt 0.109379 0.001875
vt 0.180941 0.001875
vt 0.180941 0.509961
vt 0.109379 0.509961
vt 0.209504 0.016245
vt 0.209504 0.495591
vt 0.566414 0.485213
vt 0.566414 0.910672
vt 0.517713 0.910672
vt 0.517713 0.485213
vt 0.511577 0.485213
vt 0.511577 0.910672
vt 0.462876 0.910672
vt 0.462876 0.485213
vn 0.000000 0.000000 1.000000
vn 0.000000 0.000000 1.000000
vn 0.000000 0.000000 1.000000
vn 0.000000 0.000000 1.000000
vn 0.000000 1.000000 0.000000
vn 0.000000 1.000000 0.000000
vn 0.000000 1.000000 0.000000
vn 0.000000 1.000000 0.000000
vn 0.000000 0.000000 -1.000000
vn 0.000000 0.000000 -1.000000
vn 0.000000 0.000000 -1.000000
vn 0.000000 0.000000 -1.000000
vn 0.000000 -1.000000 0.000000
vn 0.000000 -1.000000 0.000000
vn 0.000000 -1.000000 0.000000
vn 0.000000 -1.000000 0.000000
vn 1.000000 0.000000 0.000000
vn 1.000000 0.000000 0.000000
vn 1.000000 0.000000 0.000000
vn 1.000000 0.000000 0.000000
vn 0.449425 -0.893318 0.000000
vn 0.449425 -0.893318 0.000000
vn 0.449425 -0.893318 0.000000
vn 0.449425 -0.893318 0.000000
vn 0.449425 0.000000 -0.893318
vn 0.449425 0.000000 -0.893318
vn 0.449425 0.000000 -0.893318
vn 0.449425 0.000000 -0.893318
vn 0.449425 0.893318 0.000000
vn 0.449425 0.893318 0.000000
vn 0.449425 0.893318 0.000000
vn 0.449425 0.893318 0.000000
vn 0.449425 0.000000 0.893318
vn 0.449425 0.000000 0.893318
vn 0.449425 0.000000 0.893318
vn 0.449425 0.000000 0.893318
vn 0.900699 0.434443 0.000000
vn 0.900699 0.434443 0.000000
vn 0.900699 0.434443 0.000000
vn 0.900699 0.434443 0.000000
vn 0.900698 0.000000 0.434445
vn 0.900698 0.000000 0.434445
vn 0.900698 0.000000 0.434445
vn 0.900698 0.000000 0.434445
vn 0.900699 -0.434443 0.000000
vn 0.900699 -0.434443 0.000000
vn 0.900699 -0.434443 0.000000
vn 0.900699 -0.434443 0.000000
vn 0.900698 0.000000 -0.434445
vn 0.900698 0.000000 -0.434445
vn 0.900698 0.000000 -0.434445
vn 0.900698 0.000000 -0.434445
vn 0.000000 1.000000 0.000000
vn 0.000000 1.000000 0.000000
vn 0.000000 1.000000 0.000000
vn 0.000000 1.000000 0.000000
vn 0.000000 0.000000 1.000000
vn 0.000000 0.000000 1.000000
vn 0.000000 0.000000 1.000000
vn 0.000000 0.000000 1.000000
vn 0.000000 -1.000000 0.000000
vn 0.000000 -1.000000 0.000000
vn 0.000000 -1.000000 0.000000
vn 0.000000 -1.000000 0.000000
vn 0.000000 0.000000 -1.000000
vn 0.000000 0.000000 -1.000000
vn 0.000000 0.000000 -1.000000
vn 0.000000 0.000000 -1.000000
s off
g dial_base
usemtl initialShadingGroup
f 1/33/1 2/34/2 4/35/3 3/36/4
f 3/13/5 4/14/6 6/15/7 5/16/8
f 5/39/9 6/40/10 8/41/11 7/42/12
f 7/19/13 8/20/14 2/21/15 1/22/16
f 18/1/17 17/2/18 19/3/19 20/4/20
f 2/21/21 8/20/22 9/23/23 10/24/24
f 8/41/25 6/40/26 11/43/27 9/44/28
f 6/15/29 4/14/30 12/17/31 11/18/32
f 4/35/33 2/34/34 10/37/35 12/38/36
f 10/5/37 9/6/38 13/7/39 14/8/40
f 9/6/41 11/9/42 15/10/43 13/7/44
f 11/9/45 12/11/46 16/12/47 15/10/48
f 12/11/49 10/5/50 14/8/51 16/12/52
f 14/25/53 13/26/54 17/27/55 18/28/56
f 13/45/57 15/46/58 19/47/59 17/48/60
f 15/29/61 16/30/62 20/31/63 19/32/64
f 16/49/65 14/50/66 18/51/67 20/52/68
