# This file uses centimeters as units for non-parametric coordinates.

mtllib signal_tv.mtl
g default
v -0.500000 0.000000 0.500000
v 0.500000 0.000000 0.500000
v -0.500000 1.000000 0.500000
v 0.500000 1.000000 0.500000
v -0.500000 1.000000 -0.500000
v 0.500000 1.000000 -0.500000
v -0.500000 0.000000 -0.500000
v 0.500000 0.000000 -0.500000
v 0.500000 0.213570 -0.455463
v 0.500000 0.213570 0.455463
v 0.500000 0.955463 -0.455463
v 0.500000 0.955463 0.455463
v 0.489167 0.240987 -0.421799
v 0.489167 0.240987 0.421799
v 0.489167 0.928046 -0.421799
v 0.489167 0.928046 0.421799
v 0.447202 0.240987 -0.421799
v 0.447202 0.240987 0.421799
v 0.447202 0.928046 -0.421799
v 0.447202 0.928046 0.421799
v -0.500000 0.036526 -0.463474
v -0.500000 0.036526 0.463474
v -0.500000 0.963474 0.463474
v -0.500000 0.963474 -0.463474
v -0.466512 0.036526 -0.463474
v -0.466512 0.036526 0.463474
v -0.466512 0.963474 0.463474
v -0.466512 0.963474 -0.463474
v -0.455359 1.036002 0.226111
v 0.455359 1.036002 0.226111
v 0.455359 1.036002 -0.226111
v -0.455359 1.036002 -0.226111
v -0.455359 1.096258 0.131557
v 0.455359 1.096258 0.131557
v 0.455359 1.096258 -0.131557
v -0.455359 1.096258 -0.131557
v 0.270564 0.000000 0.500000
v 0.270564 1.000000 0.500000
v 0.246407 1.036002 0.226111
v 0.246407 1.096258 0.131557
v 0.246407 1.096258 -0.131557
v 0.246407 1.036002 -0.226111
v 0.270564 1.000000 -0.500000
v 0.270564 0.000000 -0.500000
v 0.270564 0.000000 0.515657
v 0.500000 0.000000 0.515657
v 0.500000 1.000000 0.515657
v 0.270564 1.000000 0.515657
v 0.291398 0.000000 0.546241
v 0.479166 0.000000 0.546241
v 0.479166 1.000000 0.546241
v 0.291398 1.000000 0.546241
v 0.291398 0.000000 0.803730
v 0.479166 0.000000 0.803730
v 0.479166 1.000000 0.803730
v 0.291398 1.000000 0.803730
v 0.308900 0.023033 0.814257
v 0.461664 0.023033 0.814257
v 0.461664 0.976967 0.814257
v 0.308900 0.976967 0.814257
v 0.479166 0.017352 0.558820
v 0.479166 0.982648 0.558820
v 0.479166 0.982648 0.791151
v 0.479166 0.017352 0.791151
v 0.455150 0.017352 0.558820
v 0.455150 0.982648 0.558820
v 0.455150 0.982648 0.791151
v 0.455150 0.017352 0.791151
vt 0.446548 0.915226
vt 0.446548 0.673369
vt 0.643526 0.673369
vt 0.643526 0.915226
vt 0.103532 0.673369
vt 0.369285 0.673369
vt 0.369285 0.939122
vt 0.103532 0.939122
vt 0.001992 0.288593
vt 0.001992 0.001896
vt 0.063222 0.014665
vt 0.063222 0.275824
vt 0.288689 0.001896
vt 0.275920 0.014665
vt 0.071082 0.024316
vt 0.071082 0.266173
vt 0.288689 0.288593
vt 0.275920 0.275824
vt 0.268060 0.024316
vt 0.268060 0.266173
vt 0.288689 0.293082
vt 0.001992 0.293082
vt 0.299010 0.080420
vt 0.299010 0.210070
vt 0.288689 0.301850
vt 0.001992 0.301850
vt 0.316285 0.107528
vt 0.316285 0.182962
vt 0.283714 0.305457
vt 0.006967 0.305457
vt 0.288689 0.375671
vt 0.283714 0.372065
vt 0.001992 0.375671
vt 0.006967 0.372065
vt 0.282085 0.378690
vt 0.008595 0.378690
vt 0.711311 0.379663
vt 0.998008 0.379663
vt 0.987536 0.390135
vt 0.721783 0.390135
vt 0.998008 0.666360
vt 0.987536 0.655888
vt 0.711311 0.666360
vt 0.721783 0.655888
vt 0.919485 0.676681
vt 0.789835 0.676681
vt 0.892377 0.693956
vt 0.816943 0.693956
vt 0.035226 0.669378
vt 0.035226 0.382681
vt 0.039715 0.382681
vt 0.039715 0.669378
vt 0.048484 0.382681
vt 0.048484 0.669378
vt 0.122305 0.382681
vt 0.122305 0.669378
vt 0.125323 0.389284
vt 0.125323 0.662774
vt 0.068600 0.673369
vt 0.068600 0.950116
vt 0.001992 0.950116
vt 0.001992 0.673369
vt 0.336563 0.194606
vt 0.537757 0.194606
vt 0.537757 0.270040
vt 0.336563 0.270040
vt 0.336563 0.167498
vt 0.537757 0.167498
vt 0.597662 0.194606
vt 0.597662 0.270040
vt 0.537757 0.297148
vt 0.336563 0.297148
vt 0.323764 0.088975
vt 0.544682 0.088975
vt 0.597662 0.167498
vt 0.597662 0.297148
vt 0.544682 0.375671
vt 0.323764 0.375671
vt 0.610461 0.088975
vt 0.610461 0.375671
vt 0.544682 0.084486
vt 0.610461 0.084486
vt 0.550655 0.075718
vt 0.604488 0.075718
vt 0.550655 0.001896
vt 0.604488 0.001896
vt 0.618056 0.001896
vt 0.838974 0.001896
vt 0.838974 0.288593
vt 0.618056 0.288593
vt 0.904753 0.001896
vt 0.904753 0.288593
vt 0.904753 0.293082
vt 0.838974 0.293082
vt 0.898780 0.301850
vt 0.844947 0.301850
vt 0.898780 0.375671
vt 0.844947 0.375671
vt 0.663219 0.670351
vt 0.663219 0.912208
vt 0.651188 0.912208
vt 0.651188 0.670351
vt 0.682709 0.670351
vt 0.682709 0.912208
vt 0.670678 0.912208
vt 0.670678 0.670351
vt 0.376386 0.939122
vt 0.376386 0.673369
vt 0.385987 0.673369
vt 0.385987 0.939122
vt 0.411467 0.939122
vt 0.411467 0.673369
vt 0.421068 0.673369
vt 0.421068 0.939122
vt 0.736032 0.697948
vt 0.736032 0.764556
vt 0.729146 0.764556
vt 0.729146 0.697948
vt 0.749674 0.697948
vt 0.749674 0.764556
vt 0.742789 0.764556
vt 0.742789 0.697948
vt 0.484258 0.379663
vt 0.705176 0.379663
vt 0.705176 0.666360
vt 0.484258 0.666360
vt 0.191426 0.382681
vt 0.412344 0.382681
vt 0.412344 0.669378
vt 0.191426 0.669378
vt 0.478123 0.382681
vt 0.478123 0.669378
vt 0.702199 0.670351
vt 0.702199 0.867329
vt 0.690167 0.867329
vt 0.690167 0.670351
vt 0.721688 0.697948
vt 0.721688 0.894925
vt 0.709657 0.894925
vt 0.709657 0.697948
vt 0.393926 0.939122
vt 0.393926 0.673369
vt 0.403527 0.673369
vt 0.403527 0.939122
vt 0.429008 0.939122
vt 0.429008 0.673369
vt 0.438608 0.673369
vt 0.438608 0.939122
vt 0.136476 0.389284
vt 0.180273 0.389284
vt 0.180273 0.662774
vt 0.136476 0.662774
vt 0.131458 0.382681
vt 0.185291 0.382681
vt 0.185291 0.669378
vt 0.131458 0.669378
vt 0.083133 0.673369
vt 0.083133 0.950116
vt 0.076247 0.950116
vt 0.076247 0.673369
vt 0.096775 0.673369
vt 0.096775 0.950116
vt 0.089890 0.950116
vt 0.089890 0.673369
vn 0.000000 0.000000 1.000000
vn 0.000000 0.000000 1.000000
vn 0.000000 0.000000 1.000000
vn 0.000000 0.000000 1.000000
vn 0.000000 1.000000 0.000000
vn 0.000000 1.000000 0.000000
vn 0.000000 1.000000 0.000000
vn 0.000000 1.000000 0.000000
vn 0.000000 0.000000 -1.000000
vn 0.000000 0.000000 -1.000000
vn 0.000000 0.000000 -1.000000
vn 0.000000 0.000000 -1.000000
vn 0.000000 -1.000000 0.000000
vn 0.000000 -1.000000 0.000000
vn 0.000000 -1.000000 0.000000
vn 0.000000 -1.000000 0.000000
vn 1.000000 0.000000 0.000000
vn 1.000000 0.000000 0.000000
vn 1.000000 0.000000 0.000000
vn 1.000000 0.000000 0.000000
vn -1.000000 0.000000 0.000000
vn -1.000000 0.000000 0.000000
vn -1.000000 0.000000 0.000000
vn -1.000000 0.000000 0.000000
vn 1.000000 0.000000 0.000000
vn 1.000000 0.000000 0.000000
vn 1.000000 0.000000 0.000000
vn 1.000000 0.000000 0.000000
vn 1.000000 0.000000 0.000000
vn 1.000000 0.000000 0.000000
vn 1.000000 0.000000 0.000000
vn 1.000000 0.000000 0.000000
vn 1.000000 0.000000 0.000000
vn 1.000000 0.000000 0.000000
vn 1.000000 0.000000 0.000000
vn 1.000000 0.000000 0.000000
vn 1.000000 0.000000 0.000000
vn 1.000000 0.000000 0.000000
vn 1.000000 0.000000 0.000000
vn 1.000000 0.000000 0.000000
vn 0.930035 0.367472 0.000000
vn 0.930035 0.367472 0.000000
vn 0.930035 0.367472 0.000000
vn 0.930035 0.367472 0.000000
vn 0.951926 0.000000 0.306328
vn 0.951926 0.000000 0.306328
vn 0.951926 0.000000 0.306328
vn 0.951926 0.000000 0.306328
vn 0.930035 -0.367472 0.000000
vn 0.930035 -0.367472 0.000000
vn 0.930035 -0.367472 0.000000
vn 0.930035 -0.367472 0.000000
vn 0.951926 0.000000 -0.306328
vn 0.951926 0.000000 -0.306328
vn 0.951926 0.000000 -0.306328
vn 0.951926 0.000000 -0.306328
vn 0.000000 1.000000 0.000000
vn 0.000000 1.000000 0.000000
vn 0.000000 1.000000 0.000000
vn 0.000000 1.000000 0.000000
vn 0.000000 0.000000 1.000000
vn 0.000000 0.000000 1.000000
vn 0.000000 0.000000 1.000000
vn 0.000000 0.000000 1.000000
vn 0.000000 -1.000000 0.000000
vn 0.000000 -1.000000 0.000000
vn 0.000000 -1.000000 0.000000
vn 0.000000 -1.000000 0.000000
vn 0.000000 0.000000 -1.000000
vn 0.000000 0.000000 -1.000000
vn 0.000000 0.000000 -1.000000
vn 0.000000 0.000000 -1.000000
vn -1.000000 0.000000 0.000000
vn -1.000000 0.000000 0.000000
vn -1.000000 0.000000 0.000000
vn -1.000000 0.000000 0.000000
vn -1.000000 0.000000 0.000000
vn -1.000000 0.000000 0.000000
vn -1.000000 0.000000 0.000000
vn -1.000000 0.000000 0.000000
vn -1.000000 0.000000 0.000000
vn -1.000000 0.000000 0.000000
vn -1.000000 0.000000 0.000000
vn -1.000000 0.000000 0.000000
vn -1.000000 0.000000 0.000000
vn -1.000000 0.000000 0.000000
vn -1.000000 0.000000 0.000000
vn -1.000000 0.000000 0.000000
vn 0.000000 1.000000 0.000000
vn 0.000000 1.000000 0.000000
vn 0.000000 1.000000 0.000000
vn 0.000000 1.000000 0.000000
vn 0.000000 0.000000 -1.000000
vn 0.000000 0.000000 -1.000000
vn 0.000000 0.000000 -1.000000
vn 0.000000 0.000000 -1.000000
vn 0.000000 -1.000000 0.000000
vn 0.000000 -1.000000 0.000000
vn 0.000000 -1.000000 0.000000
vn 0.000000 -1.000000 0.000000
vn 0.000000 0.000000 1.000000
vn 0.000000 0.000000 1.000000
vn 0.000000 0.000000 1.000000
vn 0.000000 0.000000 1.000000
vn 0.000000 0.991471 0.130328
vn 0.000000 0.991471 0.130328
vn 0.000000 0.991471 0.130328
vn 0.000000 0.991471 0.130328
vn 0.627765 0.778403 0.000000
vn 0.627765 0.778403 0.000000
vn 0.627765 0.778403 0.000000
vn 0.627765 0.778403 0.000000
vn 0.000000 0.991471 -0.130328
vn 0.000000 0.991471 -0.130328
vn 0.000000 0.991471 -0.130328
vn 0.000000 0.991471 -0.130328
vn -0.627765 0.778403 0.000000
vn -0.627765 0.778403 0.000000
vn -0.627765 0.778403 0.000000
vn -0.627765 0.778403 0.000000
vn 0.000000 0.843320 0.537412
vn 0.000000 0.843320 0.537412
vn 0.000000 0.843320 0.537412
vn 0.000000 0.843320 0.537412
vn 1.000000 0.000000 0.000000
vn 1.000000 0.000000 0.000000
vn 1.000000 0.000000 0.000000
vn 1.000000 0.000000 0.000000
vn 0.000000 0.843320 -0.537412
vn 0.000000 0.843320 -0.537412
vn 0.000000 0.843320 -0.537412
vn 0.000000 0.843320 -0.537412
vn -1.000000 0.000000 0.000000
vn -1.000000 0.000000 0.000000
vn -1.000000 0.000000 0.000000
vn -1.000000 0.000000 0.000000
vn 0.000000 0.000000 1.000000
vn 0.000000 0.000000 1.000000
vn 0.000000 0.000000 1.000000
vn 0.000000 0.000000 1.000000
vn 0.000000 0.991471 0.130328
vn 0.000000 0.991471 0.130328
vn 0.000000 0.843320 0.537412
vn 0.000000 0.843320 0.537412
vn 0.000000 1.000000 0.000000
vn 0.000000 1.000000 0.000000
vn 0.000000 0.843320 -0.537412
vn 0.000000 0.843320 -0.537412
vn 0.000000 0.991471 -0.130328
vn 0.000000 0.991471 -0.130328
vn 0.000000 0.000000 -1.000000
vn 0.000000 0.000000 -1.000000
vn 0.000000 -1.000000 0.000000
vn 0.000000 -1.000000 0.000000
vn 0.000000 -1.000000 0.000000
vn 0.000000 -1.000000 0.000000
vn 0.000000 -1.000000 0.000000
vn 0.000000 -1.000000 0.000000
vn 1.000000 0.000000 0.000000
vn 1.000000 0.000000 0.000000
vn 1.000000 0.000000 0.000000
vn 1.000000 0.000000 0.000000
vn 0.000000 1.000000 0.000000
vn 0.000000 1.000000 0.000000
vn 0.000000 1.000000 0.000000
vn 0.000000 1.000000 0.000000
vn -1.000000 0.000000 0.000000
vn -1.000000 0.000000 0.000000
vn -1.000000 0.000000 0.000000
vn -1.000000 0.000000 0.000000
vn 0.000000 -1.000000 0.000000
vn 0.000000 -1.000000 0.000000
vn 0.000000 -1.000000 0.000000
vn 0.000000 -1.000000 0.000000
vn 0.826467 0.000000 0.562986
vn 0.826467 0.000000 0.562986
vn 0.826467 0.000000 0.562986
vn 0.826467 0.000000 0.562986
vn 0.000000 1.000000 0.000000
vn 0.000000 1.000000 0.000000
vn 0.000000 1.000000 0.000000
vn 0.000000 1.000000 0.000000
vn -0.826467 0.000000 0.562986
vn -0.826467 0.000000 0.562986
vn -0.826467 0.000000 0.562986
vn -0.826467 0.000000 0.562986
vn 0.000000 -1.000000 0.000000
vn 0.000000 -1.000000 0.000000
vn 0.000000 -1.000000 0.000000
vn 0.000000 -1.000000 0.000000
vn 1.000000 0.000000 0.000000
vn 1.000000 0.000000 0.000000
vn 1.000000 0.000000 0.000000
vn 1.000000 0.000000 0.000000
vn 0.000000 1.000000 0.000000
vn 0.000000 1.000000 0.000000
vn 0.000000 1.000000 0.000000
vn 0.000000 1.000000 0.000000
vn -1.000000 0.000000 0.000000
vn -1.000000 0.000000 0.000000
vn -1.000000 0.000000 0.000000
vn -1.000000 0.000000 0.000000
vn 0.000000 -0.415686 0.909508
vn 0.000000 -0.415686 0.909508
vn 0.000000 -0.415686 0.909508
vn 0.000000 -0.415686 0.909508
vn 0.515427 0.000000 0.856933
vn 0.515427 0.000000 0.856933
vn 0.515427 0.000000 0.856933
vn 0.515427 0.000000 0.856933
vn 0.000000 0.415686 0.909508
vn 0.000000 0.415686 0.909508
vn 0.000000 0.415686 0.909508
vn 0.000000 0.415686 0.909508
vn -0.515426 0.000000 0.856934
vn -0.515426 0.000000 0.856934
vn -0.515426 0.000000 0.856934
vn -0.515426 0.000000 0.856934
vn 1.000000 0.000000 0.000000
vn 1.000000 0.000000 0.000000
vn 1.000000 0.000000 0.000000
vn 1.000000 0.000000 0.000000
vn 1.000000 0.000002 0.000000
vn 1.000000 0.000002 0.000000
vn 1.000000 0.000002 0.000000
vn 1.000000 0.000002 0.000000
vn 1.000000 0.000000 0.000000
vn 1.000000 0.000000 0.000000
vn 1.000000 0.000000 0.000000
vn 1.000000 0.000000 0.000000
vn 1.000000 -0.000002 0.000000
vn 1.000000 -0.000002 0.000000
vn 1.000000 -0.000002 0.000000
vn 1.000000 -0.000002 0.000000
vn 0.000000 0.000000 1.000000
vn 0.000000 0.000000 1.000000
vn 0.000000 0.000000 1.000000
vn 0.000000 0.000000 1.000000
vn 0.000000 -1.000000 0.000000
vn 0.000000 -1.000000 0.000000
vn 0.000000 -1.000000 0.000000
vn 0.000000 -1.000000 0.000000
vn 0.000000 0.000000 -1.000000
vn 0.000000 0.000000 -1.000000
vn 0.000000 0.000000 -1.000000
vn 0.000000 0.000000 -1.000000
vn 0.000000 1.000000 0.000000
vn 0.000000 1.000000 0.000000
vn 0.000000 1.000000 0.000000
vn 0.000000 1.000000 0.000000
s off
g signal_tv_low
usemtl initialShadingGroup
f 1/123/1 37/124/2 38/125/3 3/126/4
s 1
f 33/63/5 40/64/6 41/65/7 36/66/8
s 2
f 5/127/9 43/128/10 44/129/11 7/130/12
s 3
f 7/87/13 44/88/14 37/89/15 1/90/16
s off
f 18/1/17 17/2/18 19/3/19 20/4/20
f 25/5/21 26/6/22 27/7/23 28/8/24
f 2/9/25 8/10/26 9/11/27 10/12/28
f 8/10/29 6/13/30 11/14/31 9/11/32
f 6/13/33 4/17/34 12/18/35 11/14/36
f 4/17/37 2/9/38 10/12/39 12/18/40
f 10/12/41 9/11/42 13/15/43 14/16/44
f 9/11/45 11/14/46 15/19/47 13/15/48
f 11/14/49 12/18/50 16/20/51 15/19/52
f 12/18/53 10/12/54 14/16/55 16/20/56
f 14/99/57 13/100/58 17/101/59 18/102/60
f 13/133/61 15/134/62 19/135/63 17/136/64
f 15/103/65 16/104/66 20/105/67 19/106/68
f 16/137/69 14/138/70 18/139/71 20/140/72
f 7/37/73 1/38/74 22/39/75 21/40/76
f 1/38/77 3/41/78 23/42/79 22/39/80
f 3/41/81 5/43/82 24/44/83 23/42/84
f 5/43/85 7/37/86 21/40/87 24/44/88
f 21/107/89 22/108/90 26/109/91 25/110/92
f 22/141/93 23/142/94 27/143/95 26/144/96
f 23/111/97 24/112/98 28/113/99 27/114/100
f 24/145/101 21/146/102 25/147/103 28/148/104
s 4
f 3/73/105 38/74/106 39/68/107 29/67/108
s off
f 4/17/109 6/13/110 31/23/111 30/24/112
s 5
f 43/77/113 5/78/114 32/72/115 42/71/116
s off
f 5/43/117 3/41/118 29/45/119 32/46/120
s 6
f 29/67/121 39/68/122 40/64/123 33/63/124
s off
f 30/24/125 31/23/126 35/27/127 34/28/128
s 7
f 42/71/129 32/72/130 36/66/131 41/65/132
s off
f 32/46/133 29/45/134 33/47/135 36/48/136
f 57/149/137 58/150/138 59/151/139 60/152/140
s 4
f 39/68/107 38/74/106 4/79/141 30/75/142
s 6
f 40/64/123 39/68/122 30/75/143 34/69/144
s 1
f 41/65/7 40/64/6 34/69/145 35/70/146
s 7
f 31/76/147 42/71/129 41/65/132 35/70/148
s 5
f 6/80/149 43/77/113 42/71/116 31/76/150
s 2
f 44/129/11 43/128/10 6/131/151 8/132/152
s 3
f 37/89/15 44/88/14 8/91/153 2/92/154
s off
f 37/89/155 2/92/156 46/93/157 45/94/158
f 2/9/159 4/17/160 47/21/161 46/22/162
f 4/79/163 38/74/164 48/81/165 47/82/166
f 38/49/167 37/50/168 45/51/169 48/52/170
f 45/94/171 46/93/172 50/95/173 49/96/174
f 46/22/175 47/21/176 51/25/177 50/26/178
f 47/82/179 48/81/180 52/83/181 51/84/182
f 48/52/183 45/51/184 49/53/185 52/54/186
f 49/96/187 50/95/188 54/97/189 53/98/190
f 65/59/191 66/60/192 67/61/193 68/62/194
f 51/84/195 52/83/196 56/85/197 55/86/198
f 52/54/199 49/53/200 53/55/201 56/56/202
f 53/153/203 54/154/204 58/150/205 57/149/206
f 54/33/207 55/31/208 59/35/209 58/36/210
f 55/155/211 56/156/212 60/152/213 59/151/214
f 56/56/215 53/55/216 57/57/217 60/58/218
f 50/26/219 51/25/220 62/29/221 61/30/222
f 51/25/223 55/31/224 63/32/225 62/29/226
f 55/31/227 54/33/228 64/34/229 63/32/230
f 54/33/231 50/26/232 61/30/233 64/34/234
f 61/157/235 62/158/236 66/159/237 65/160/238
f 62/115/239 63/116/240 67/117/241 66/118/242
f 63/161/243 64/162/244 68/163/245 67/164/246
f 64/119/247 61/120/248 65/121/249 68/122/250
